<?xml version="1.0" encoding="utf-8"?>
<!-- Generator: Adobe Illustrator 19.1.1, SVG Export Plug-In . SVG Version: 6.00 Build 0)  -->
<svg version="1.1" id="Layer_1" xmlns="http://www.w3.org/2000/svg" xmlns:xlink="http://www.w3.org/1999/xlink" x="0px" y="0px"
	 viewBox="-2.5 -4 28 28" style="enable-background:new -2.5 -4 28 28;" xml:space="preserve">
<style type="text/css">
	.st0{fill-rule:evenodd;clip-rule:evenodd;fill:#F36D45;}
</style>
<g>
	<path class="st0" d="M20.8,1.1h-4.2c-2.2,0-4.1,0.6-5.1,1.6c-1-1-2.9-1.6-5.1-1.6H2.2C1.5,1.1,1,1.6,1,2.3v13.8
		c0,0.7,0.5,1.2,1.2,1.2h4.2c1.6,0,3.3,0.7,4,1.3c0.3,0.3,0.7,0.5,1.1,0.5h0.1c0.4,0,0.8-0.2,1.1-0.5c0.6-0.7,2.4-1.3,4-1.3h4.2
		c0.7,0,1.2-0.5,1.2-1.2V2.3C22,1.6,21.5,1.1,20.8,1.1L20.8,1.1z M10.6,16.5c-1.1-0.6-2.5-1-4.2-1H2.8V2.9h3.6
		c2.6,0,4.2,1.1,4.2,1.8V16.5z M20.2,15.5h-3.6c-1.7,0-3.1,0.4-4.2,1V4.7c0-0.7,1.6-1.8,4.2-1.8h3.6V15.5z M20.2,15.5"/>
</g>
</svg>
