<?xml version="1.0" encoding="utf-8"?>
<!-- Generated by IcoMoon.io -->
<!DOCTYPE svg PUBLIC "-//W3C//DTD SVG 1.1//EN" "http://www.w3.org/Graphics/SVG/1.1/DTD/svg11.dtd">
<svg version="1.1" xmlns="http://www.w3.org/2000/svg" xmlns:xlink="http://www.w3.org/1999/xlink" width="240" height="16" viewBox="0 0 240 16">
<svg id="icon-timeline" width="16" height="16" viewBox="0 0 16 16" x="0" y="0">
<path fill="#444444" d="M4.944 10.016v-4.031c-0.531-0.307-0.889-0.882-0.889-1.54s0.358-1.233 0.889-1.54v-2.021c0-0.488 0.395-0.883 0.889-0.883 0.491 0 0.889 0.396 0.889 0.883v2.021c0.531 0.307 0.889 0.882 0.889 1.54s-0.358 1.233-0.889 1.54v4.031c0.531 0.307 0.889 0.882 0.889 1.54s-0.358 1.233-0.889 1.54v2.021c0 0.488-0.395 0.883-0.889 0.883-0.491 0-0.889-0.396-0.889-0.883v-2.021c-0.531-0.307-0.889-0.882-0.889-1.54s0.358-1.233 0.889-1.54v0zM0.5 4.444c0-0.491 0.395-0.889 0.889-0.889 0.491 0 0.889 0.395 0.889 0.889 0 0.491-0.395 0.889-0.889 0.889-0.491 0-0.889-0.395-0.889-0.889zM9.389 4.444c0-0.491 0.401-0.889 0.881-0.889h3.572c0.486 0 0.881 0.395 0.881 0.889 0 0.491-0.401 0.889-0.881 0.889h-3.572c-0.486 0-0.881-0.395-0.881-0.889zM0.5 11.556c0-0.491 0.395-0.889 0.889-0.889 0.491 0 0.889 0.395 0.889 0.889 0 0.491-0.395 0.889-0.889 0.889-0.491 0-0.889-0.395-0.889-0.889zM9.389 11.556c0-0.491 0.401-0.889 0.881-0.889h3.572c0.486 0 0.881 0.395 0.881 0.889 0 0.491-0.401 0.889-0.881 0.889h-3.572c-0.486 0-0.881-0.395-0.881-0.889z"></path>
</svg>
<svg id="icon-script" width="16" height="16" viewBox="0 0 16 16" x="32" y="0">
<path fill="#444444" d="M15.914 2.51c-0.090-0.152-0.238-0.258-0.409-0.293l-9.063-2.206c-0.299-0.058-0.593 0.108-0.697 0.396l-3.455 8.861 1.153 0.424 3.274-8.425 7.875 2.029c-0.492 1.539-1.662 4.752-2.784 7.744-0.978 2.61-1.541 3.504-2.611 3.686-0.001-0.001-0.002-0.003-0.002-0.004-2.186 0.309-2.147-2.504-2.147-2.504l-6.982-2.847c-0.496 3.175 1.92 3.939 1.92 3.939l5.112 2.343c0.001 0.001 0.799 0.384 1.667 0.345 2.339-0.056 3.162-1.771 4.192-4.518 1.488-3.971 2.999-8.42 3.014-8.468 0.053-0.168 0.032-0.35-0.057-0.501zM11.783 6.083c0.053 0.015 0.108 0.022 0.163 0.022 0.269 0 0.516-0.181 0.591-0.456 0.090-0.33-0.104-0.672-0.431-0.762l-2.66-0.829c-0.323-0.090-0.665 0.104-0.754 0.434s0.103 0.672 0.431 0.762l2.66 0.829zM7.627 6.975c-0.107 0.325 0.066 0.676 0.388 0.784l2.646 0.955c0.064 0.022 0.127 0.031 0.191 0.032 0.258 0.001 0.5-0.163 0.586-0.423 0.107-0.324-0.066-0.675-0.388-0.784l-2.645-0.954c-0.323-0.108-0.67 0.067-0.777 0.391zM7.394 9.171c-0.322-0.109-0.67 0.069-0.775 0.395-0.106 0.324 0.071 0.675 0.393 0.781l2.652 0.951c0.064 0.022 0.128 0.031 0.192 0.031 0.258 0 0.498-0.166 0.583-0.426 0.106-0.326-0.070-0.676-0.392-0.783l-2.652-0.95zM7.296 3.336c0.376 0 0.681 0.299 0.681 0.668s-0.305 0.668-0.681 0.668c-0.376 0-0.681-0.299-0.681-0.668s0.305-0.668 0.681-0.668zM6.333 5.82c0.376 0 0.681 0.299 0.681 0.668s-0.305 0.668-0.681 0.668c-0.376 0-0.681-0.299-0.681-0.668s0.305-0.668 0.681-0.668zM5.306 8.383c0.376 0 0.681 0.299 0.681 0.669s-0.305 0.667-0.681 0.667c-0.376 0-0.681-0.299-0.681-0.667s0.305-0.669 0.681-0.669z"></path>
</svg>
<svg id="icon-tasks" width="16" height="16" viewBox="0 0 16 16" x="64" y="0">
<path fill="#444444" d="M4.843 6.495l-1.287 1.201 4.138 3.86 9.195-8.577-1.287-1.201-7.908 7.376-2.851-2.659zM14.222 14.222h-12.444v-12.444h8.889v-1.778h-8.889c-0.978 0-1.778 0.8-1.778 1.778v12.444c0 0.978 0.8 1.778 1.778 1.778h12.444c0.978 0 1.778-0.8 1.778-1.778v-7.111h-1.778v7.111z"></path>
</svg>
<svg id="icon-paperclip" width="16" height="16" viewBox="0 0 16 16" x="96" y="0">
<path fill="#444444" d="M11.898 6.466c0 0 0.647-0.492 0.155-0.984s-0.971 0.143-0.971 0.143l-4.951 4.952c0 0-1.16 1.497-2.041 0.592-0.881-0.906 0.591-2.042 0.591-2.042l6.492-6.492c0 0 1.515-1.669 2.939-0.246 1.422 1.424-0.252 2.942-0.252 2.942l-7.295 7.295c0 0-2.334 2.696-4.495 0.535s0.562-4.469 0.562-4.469l5.538-5.54c0 0 0.62-0.518 0.156-0.984-0.467-0.466-0.984 0.156-0.984 0.156l-6.355 6.355c0 0-2.399 2.631 0.28 5.309 2.679 2.68 5.312 0.281 5.312 0.281l8.735-8.736c0 0 1.748-1.927-0.336-4.012s-4.012-0.337-4.012-0.337l-7.516 7.515c0 0-1.925 1.566-0.178 3.311 1.747 1.748 3.284-0.206 3.284-0.206l5.342-5.34z"></path>
</svg>
<svg id="icon-files" width="16" height="16" viewBox="0 0 16 16" x="128" y="0">
<path fill="#444444" d="M15.902 9.574l-2.827 5.828c-0.138 0.29-0.53 0.596-0.833 0.596l-11.338 0.002c-0.24 0-0.469-0.103-0.638-0.288s-0.264-0.434-0.264-0.695l0.002-9.589c0-0.542 0.404-0.982 0.902-0.983l0.829-0.001v0.838h-0.555c-0.109 0-0.213 0.047-0.29 0.131s-0.12 0.197-0.12 0.315l0.001 8.989c0 0.247 0.183 0.446 0.41 0.446h0.568l2.68-5.903c0.151-0.33 0.437-0.596 0.74-0.596h6.562l0.002-2.376c0.428 0.043 0.767 0.43 0.767 0.908v1.468h3.010c0.355 0.004 0.655 0.387 0.395 0.911v0zM2.677 12.146c-0.024-2.841 0-11.366 0-11.366 0-0.43 0.33-0.78 0.736-0.78h5.897c0.094 0 0.185 0.042 0.248 0.115l1.907 2.193c0.057 0.066 0.089 0.152 0.089 0.242v5.68h-0.619v-5.19c0-0.090-0.069-0.163-0.154-0.163h-1.459c-0.171 0-0.31-0.147-0.31-0.327v-1.733c0-0.090-0.069-0.163-0.154-0.163h-5.446c-0.065 0-0.118 0.056-0.118 0.125v10.651l-0.473 1.014c0-0-0.143-0.011-0.145-0.299v0zM8.889 1.778h0.889l-0.889-0.889v0.889zM9.411 3.556h-5.489c-0.202 0-0.366 0.199-0.366 0.444s0.164 0.444 0.366 0.444h5.489c0.202 0 0.367-0.2 0.367-0.444s-0.165-0.444-0.367-0.444v0zM9.778 6.667c0-0.245-0.164-0.444-0.367-0.444h-5.489c-0.202 0-0.366 0.2-0.366 0.444s0.164 0.444 0.366 0.444h5.489c0.202 0 0.367-0.199 0.367-0.444v0zM3.556 8.444c0 0.245 0.224 0.444 0.5 0.444h0.179c0.316-0.784 1.099-0.889 1.099-0.889h-1.278c-0.275 0-0.5 0.199-0.5 0.444v0z"></path>
</svg>
<svg id="icon-comments" width="17" height="16" viewBox="0 0 17 16" x="160" y="0">
<path fill="#444444" d="M9.05751174,2.70657277 L9.00469484,2.79225352 L9.00410798,2.79225352 L9.56866197,1.87734742 C9.61267606,1.80575117 9.64730047,1.73122066 9.67429577,1.65551643 C9.71302817,1.625 9.74706573,1.58978873 9.77288732,1.54812207 C9.88673709,1.36326291 9.83392019,1.10387324 9.66314554,0.852699531 C9.57570423,0.615610329 9.41607981,0.403755869 9.18603286,0.261737089 L9.04342723,0.17370892 C8.85211268,0.0557511737 8.64025822,6.21724894e-15 8.43016432,6.21724894e-15 C8.39143192,6.21724894e-15 8.35269953,0.0105633803 8.31455399,0.0146713615 C8.00821596,-0.0281690141 7.74706573,0.0393192488 7.6314554,0.227112676 C7.60446009,0.271126761 7.58861502,0.319248826 7.57922535,0.370305164 C7.52406103,0.427816901 7.46948357,0.486502347 7.42723005,0.556338028 L6.01760563,2.842723 C2.56396714,3.50938967 0,5.86619718 0,8.67194836 C0,11.9935446 3.58861502,14.6965962 8.00058685,14.6965962 C12.411385,14.6965962 16,11.9941315 16,8.67194836 C15.9988263,5.62089202 12.9683099,3.09800469 9.05751174,2.70657277 L9.05751174,2.70657277 Z M7.82335681,1.032277 C7.94014085,1.17370892 8.09037559,1.3092723 8.27347418,1.42194836 L8.41666667,1.50997653 C8.5991784,1.62206573 8.78697183,1.69542254 8.96537559,1.73650235 L8.50528169,2.48298122 L7.36384977,1.77875587 L7.82335681,1.032277 L7.82335681,1.032277 Z M7.99941315,13.7670188 C4.10035211,13.7670188 0.928403756,11.4806338 0.928403756,8.67077465 C0.928403756,6.54166667 2.75117371,4.71596244 5.33039906,3.95481221 L4.23532864,5.73180751 C4.21948357,5.75762911 4.21068075,5.78462441 4.19659624,5.81103286 L3.63204225,6.72652582 L3.68838028,6.76115023 C3.62030516,6.86326291 3.56220657,6.9806338 3.53462441,7.12734742 L3.17429577,9.04929577 C3.09565728,9.46302817 3.20657277,9.69190141 3.43485915,9.69190141 C3.55633803,9.69190141 3.71185446,9.62734742 3.88967136,9.49061033 L5.44424883,8.30516432 C5.56338028,8.21537559 5.64906103,8.11443662 5.7100939,8.00821596 L5.77288732,8.0463615 L8.51877934,3.59448357 C12.1748826,3.78755869 15.0698357,5.98767606 15.0698357,8.67077465 C15.0704225,11.4818075 11.8984742,13.7670188 7.99941315,13.7670188 L7.99941315,13.7670188 Z M5.20715962,7.69894366 C5.19131455,7.73767606 5.16021127,7.78462441 5.08861502,7.83861502 L3.81514085,8.80985915 L4.11150235,7.23591549 C4.12030516,7.19366197 4.14201878,7.11502347 4.18251174,7.06690141 L4.53697183,7.28579812 C4.56396714,7.30633803 4.58802817,7.32922535 4.61795775,7.34741784 L4.76056338,7.43544601 C4.78110329,7.44776995 4.80399061,7.45246479 4.82511737,7.46361502 L5.20715962,7.69894366 Z M8.09565728,9.76584507 C8.66900923,9.76584507 9.13380282,9.30105148 9.13380282,8.72769953 C9.13380282,8.15434758 8.66900923,7.68955399 8.09565728,7.68955399 C7.52230533,7.68955399 7.05751174,8.15434758 7.05751174,8.72769953 C7.05751174,9.30105148 7.52230533,9.76584507 8.09565728,9.76584507 Z M11.3714789,9.76584507 C11.9448308,9.76584507 12.4096244,9.30105148 12.4096244,8.72769953 C12.4096244,8.15434758 11.9448308,7.68955399 11.3714789,7.68955399 C10.7981269,7.68955399 10.3333333,8.15434758 10.3333333,8.72769953 C10.3333333,9.30105148 10.7981269,9.76584507 11.3714789,9.76584507 Z"></path>
</svg>
<svg id="icon-scale" width="16" height="16" viewBox="0 0 16 16" x="192" y="0">
<path fill="#444444" d="M5.336 6.553h-4.081c-0.686 0-1.256 0.566-1.256 1.263 0 0.702 0.562 1.263 1.256 1.263h4.081c0.473 0.996 1.488 1.684 2.664 1.684s2.191-0.688 2.664-1.684h4.081c0.686 0 1.255-0.566 1.255-1.263 0-0.702-0.562-1.263-1.255-1.263h-4.081c-0.473-0.996-1.488-1.684-2.664-1.684s-2.191 0.688-2.664 1.684zM2.526 1.917c0-0.23 0.195-0.417 0.421-0.417 0.233 0 0.421 0.198 0.421 0.417v1.692c0 0.23-0.195 0.417-0.421 0.417-0.233 0-0.421-0.198-0.421-0.417v-1.692zM7.579 1.917c0-0.23 0.195-0.417 0.421-0.417 0.233 0 0.421 0.198 0.421 0.417v1.692c0 0.23-0.195 0.417-0.421 0.417-0.233 0-0.421-0.198-0.421-0.417v-1.692zM12.632 1.917c0-0.23 0.195-0.417 0.421-0.417 0.233 0 0.421 0.198 0.421 0.417v1.692c0 0.23-0.195 0.417-0.421 0.417-0.233 0-0.421-0.198-0.421-0.417v-1.692zM2.526 12.022c0-0.23 0.195-0.417 0.421-0.417 0.233 0 0.421 0.198 0.421 0.417v1.692c0 0.23-0.195 0.417-0.421 0.417-0.233 0-0.421-0.198-0.421-0.417v-1.692zM7.579 12.022c0-0.23 0.195-0.417 0.421-0.417 0.233 0 0.421 0.198 0.421 0.417v1.692c0 0.23-0.195 0.417-0.421 0.417-0.233 0-0.421-0.198-0.421-0.417v-1.692zM12.632 12.022c0-0.23 0.195-0.417 0.421-0.417 0.233 0 0.421 0.198 0.421 0.417v1.692c0 0.23-0.195 0.417-0.421 0.417-0.233 0-0.421-0.198-0.421-0.417v-1.692z"></path>
</svg>
</svg>
