<?xml version="1.0" encoding="utf-8"?>
<!-- Generator: Adobe Illustrator 19.1.1, SVG Export Plug-In . SVG Version: 6.00 Build 0)  -->
<svg version="1.1" id="Layer_1" xmlns="http://www.w3.org/2000/svg" xmlns:xlink="http://www.w3.org/1999/xlink" x="0px" y="0px"
	 viewBox="-3 -3 28 28" style="enable-background:new -3 -3 28 28;" xml:space="preserve">
<style type="text/css">
	.st0{fill:#579FD6;}
</style>
<ellipse class="st0" cx="10.8" cy="9.9" rx="1.2" ry="1.2"/>
<ellipse class="st0" cx="15.6" cy="9.9" rx="1.2" ry="1.2"/>
<path class="st0" d="M8.6,18.9c0.6,0.1,2,0.2,2.7,0.2c5.7,0,9.6-4.3,9.6-9.4c0-5.1-4.8-9.2-9.6-9.2C5.5,0.6,0.8,4.7,0.8,9.8
	C0.8,12.7,2,15.2,4,17v4.6L8.6,18.9z M2.4,9.9c0-4.2,3.8-7.7,8.8-7.7c4,0,8,3.4,8,7.7c0,4.2-3.1,7.7-8,7.7c-0.7,0-2.2-0.1-2.9-0.2
	l-2.7,1.8v-2.9C3.7,14.7,2.4,12.6,2.4,9.9z"/>
<ellipse class="st0" cx="6" cy="9.9" rx="1.2" ry="1.2"/>
</svg>
