<?xml version="1.0" encoding="utf-8"?>
<!-- Generated by IcoMoon.io -->
<!DOCTYPE svg PUBLIC "-//W3C//DTD SVG 1.1//EN" "http://www.w3.org/Graphics/SVG/1.1/DTD/svg11.dtd">
<svg version="1.1" xmlns="http://www.w3.org/2000/svg" xmlns:xlink="http://www.w3.org/1999/xlink" width="240" height="16" viewBox="0 0 240 16">
<svg id="icon-phone" width="16" height="16" viewBox="0 0 16 16" x="0" y="0">
<path fill="#444444" d="M15.5467476,14.5655647 L14.4080998,15.7044423 C14.2048138,15.9074344 13.6095515,16.0341066 13.5904422,16.0341066 C9.98827044,16.0655255 6.51992278,14.6506186 3.97157912,12.1020509 C1.41625996,9.54527687 -0.000294140043,6.06457523 0.037748714,2.45028452 C0.037748714,2.44864324 0.168114365,1.87044113 0.371224518,1.66926619 L1.50981373,0.530505824 C1.92646797,0.11191892 2.72683335,-0.0772394529 3.28751116,0.11033625 L3.52702287,0.190231776 C4.08605939,0.377631626 4.67299791,0.995752184 4.82745541,1.56522029 L5.40020846,3.66735775 C5.55466596,4.23846715 5.34633884,5.05096303 4.92980182,5.46761556 L4.16953092,6.22800056 C4.91596806,8.99134237 7.08417627,11.159952 9.84799841,11.9082032 L10.6079762,11.1476423 C11.0265649,10.7290554 11.838771,10.520905 12.4086518,10.6751274 L14.5105048,11.2499297 C15.0800925,11.4064382 15.6980984,11.9896814 15.8854404,12.5485397 L15.9653362,12.7915089 C16.1510369,13.3506017 15.9633432,14.1507879 15.5467476,14.5655647 L15.5467476,14.5655647 Z"></path>
</svg>
<svg id="icon-mail" width="16" height="16" viewBox="0 0 16 16" x="32" y="0">
<path fill="#444444" d="M1.23750128,3.02216493 L7.00064879,7.58719347 C7.26198346,7.79396376 7.62210838,7.88586167 7.97189479,7.86863081 C8.32110684,7.88586167 8.68123176,7.79453812 8.94256644,7.58719347 L14.7057139,3.02216493 C15.1675009,2.65859384 15.0629671,2.3605 14.4771179,2.3605 L7.97246916,2.3605 L1.46782041,2.3605 C0.881396893,2.3605 0.776863024,2.65859384 1.23750128,3.02216493 Z M15.1221263,4.22660188 L8.82424788,9.00816486 C8.5887595,9.18506833 8.28032714,9.27122262 7.97304352,9.26720209 C7.66518553,9.27122262 7.35675318,9.18449397 7.12126479,9.00816486 L0.822237616,4.22660188 C0.354707013,3.87222057 -0.0278180256,4.06233437 -0.0278180256,4.64875789 L-0.0278180256,12.4939674 C-0.0278180256,13.0803909 0.452348539,13.5605574 1.03877206,13.5605574 L7.97189479,13.5605574 L14.9055919,13.5605574 C15.4920154,13.5605574 15.972182,13.0803909 15.972182,12.4939674 L15.972182,4.64875789 C15.972182,4.06233437 15.5896569,3.87222057 15.1221263,4.22660188 Z"></path>
</svg>
<svg id="icon-skype" width="16" height="16" viewBox="0 0 16 16" x="64" y="0">
<path fill="#444444" d="M11.615,15.7683333 C10.765,15.7683333 9.97333333,15.525 9.29833333,15.1083333 C8.865,15.1866667 8.42,15.2316667 7.96166667,15.2316667 C3.90333333,15.2316667 0.615,11.96 0.615,7.92333333 C0.615,7.53166667 0.646666667,7.14666667 0.706666667,6.77166667 C0.258333333,6.085 0,5.265 0,4.385 C0,1.96333333 1.96166667,0.00166666667 4.38333333,0 C5.26666667,0 6.08666667,0.261666667 6.77666667,0.711666667 C7.16,0.648333333 7.55666667,0.615 7.96,0.615 C12.0166667,0.615 15.3066667,3.88833333 15.3066667,7.92333333 C15.3066667,8.26 15.2816667,8.59 15.2383333,8.915 C15.72,9.62 16,10.47 16,11.3833333 C16,13.8066667 14.0383333,15.7683333 11.615,15.7683333 Z M7.04,6.51666667 C4.91666667,6 6.07833333,4.18333333 7.79833333,4.21 C9.46833333,4.23666667 10.3183333,6 11.0733333,5.90833333 C11.8316667,5.81666667 12.4766667,4.68166667 11.285,3.665 C10.2566667,2.785 8.95166667,2.3 6.94833333,2.48166667 C5.37833333,2.62333333 3.88666667,3.635 3.70333333,5.605 C3.52166667,7.57666667 5.85833333,8.57833333 7.70833333,8.85333333 C9.005,9.04333333 10.7716667,9.67166667 9.70833333,10.885 C8.735,12 6.88833333,11.31 6.40333333,11.0066667 C5.91833333,10.7 5.37166667,9.61 4.46166667,9.66833333 C3.55,9.73 3.10166667,10.9266667 4.22,11.9766667 C5.22166667,12.915 6.31333333,13.4333333 8.64833333,13.31 C10.985,13.1883333 13.0783333,11.1266667 12.2583333,9.18333333 C11.4383333,7.24333333 9.16333333,7.03166667 7.04,6.51666667 Z"></path>
</svg>
<svg id="icon-facebook" width="16" height="16" viewBox="0 0 16 16" x="96" y="0">
<path fill="#444444" d="M11.4466667,7.99833333 L9.26166667,8 L9.26,16 L6.26166667,16 L6.26166667,8 L4.26166667,8 L4.26166667,5.24333333 L6.26166667,5.24166667 L6.25833333,3.61833333 C6.25833333,1.36833333 6.86833333,0 9.51666667,0 L11.7233333,0 L11.7233333,2.75833333 L10.3433333,2.75833333 C9.31166667,2.75833333 9.26166667,3.14333333 9.26166667,3.86166667 L9.25833333,5.24166667 L11.7383333,5.24166667 L11.4466667,7.99833333 L11.4466667,7.99833333 Z"></path>
</svg>
<svg id="icon-vk" width="16" height="16" viewBox="0 0 16 16" x="128" y="0">
<path fill="#444444" d="M13.7865151,9.08564234 C14.3166806,9.60347298 14.8775668,10.0908156 15.3535055,10.6621748 C15.5643615,10.9149227 15.7631154,11.1762817 15.9143917,11.4702233 C16.1303678,11.8893752 15.9353377,12.3490227 15.5601723,12.3739251 L13.229818,12.3734596 C12.6279708,12.4232644 12.1490066,12.1805241 11.7452151,11.7690523 C11.42288,11.4411317 11.1238183,11.0908688 10.8133526,10.751777 C10.6865132,10.6126027 10.5529246,10.4815741 10.3937353,10.3784734 C10.0760549,10.1718067 9.80003373,10.23511 9.61803662,10.5669871 C9.43254852,10.9046825 9.39019114,11.2789169 9.37250344,11.6547805 C9.34713556,12.2042628 9.18142975,12.347859 8.63008558,12.3736923 C7.45199179,12.42885 6.33417581,12.2501112 5.29525627,11.6561769 C4.37875423,11.1322952 3.66938443,10.3929029 3.05124593,9.55576274 C1.84755152,7.92383985 0.925696616,6.13272767 0.0974003274,4.29018153 C-0.0890187024,3.87521882 0.0473627601,3.65319166 0.505148318,3.64458055 C1.26571934,3.62991838 2.02629036,3.63178024 2.78686139,3.64388235 C3.09639611,3.64876974 3.30120103,3.82587945 3.42012753,4.11795921 C3.83113378,5.12918353 4.33500045,6.09130122 4.96640472,6.98359905 C5.13467059,7.22121931 5.30642745,7.45814137 5.5510297,7.62594177 C5.82099983,7.81119714 6.02673569,7.74998839 6.15404057,7.44859933 C6.23549707,7.25706017 6.27063973,7.05225525 6.28832743,6.84698485 C6.34883798,6.14389885 6.3560527,5.44104558 6.25132291,4.74075237 C6.1861577,4.30251637 5.93969359,4.0195132 5.50285399,3.9366603 C5.28036137,3.89453565 5.31294397,3.81214821 5.42116475,3.68507607 C5.60898018,3.46537624 5.78492623,3.32946024 6.1365856,3.32946024 L8.76949257,3.32899477 C9.18445528,3.41045128 9.27754843,3.59663758 9.33386978,4.01462581 L9.33619711,6.94054347 C9.33130972,7.10229281 9.41742089,7.58172253 9.70787151,7.68761599 C9.94060438,7.76441783 10.0942081,7.57776607 10.2333823,7.43044616 C10.8647866,6.76040823 11.3146593,5.96958193 11.7175199,5.15106042 C11.8953278,4.79009174 12.0486987,4.41655548 12.1976478,4.04232102 C12.3084286,3.76560164 12.4806509,3.62945291 12.7929784,3.63410757 L15.3283703,3.6371331 C15.4030776,3.6371331 15.4789485,3.63783129 15.5529576,3.6506316 C15.9802551,3.72370972 16.0973198,3.90756869 15.9651275,4.32439326 C15.7570643,4.97930356 15.3528073,5.52482941 14.9576269,6.07175166 C14.5340531,6.65730756 14.0823186,7.22238298 13.6629339,7.81049894 C13.2775283,8.34811187 13.3080163,8.6187802 13.7865151,9.08564234 L13.7865151,9.08564234 Z"></path>
</svg>
<svg id="icon-twitter" width="16" height="16" viewBox="0 0 17 16" x="160" y="0">
<path fill="#444444" d="M14.3619892,4.7371027 C14.3683027,4.87781622 14.3715459,5.01939459 14.3715459,5.16170811 C14.3715459,9.49948108 11.0697514,14.5014703 5.03191351,14.5014703 C3.17816216,14.5014703 1.45275676,13.9579892 0,13.0266162 C0.256778378,13.056973 0.518097297,13.0725405 0.783048649,13.0725405 C2.32099459,13.0725405 3.73634595,12.5476541 4.85980541,11.6673081 C3.42339459,11.6408865 2.21115676,10.6916541 1.79334054,9.38765405 C1.99385946,9.42592432 2.19948108,9.44650811 2.41098378,9.44650811 C2.71035676,9.44650811 3.00034595,9.40637838 3.27580541,9.33139459 C1.77414054,9.02968649 0.642594595,7.70302703 0.642594595,6.11262703 C0.642594595,6.09878919 0.642594595,6.08499459 0.642940541,6.07132973 C1.08553514,6.31716757 1.59165405,6.46484324 2.12972973,6.48188108 C1.24886486,5.8932973 0.669405405,4.88854054 0.669405405,3.7496 C0.669405405,3.14804324 0.831308108,2.58410811 1.11385946,2.09935135 C2.73284324,4.08538378 5.15165405,5.39215135 7.87978378,5.52914595 C7.82382703,5.28875676 7.79481081,5.03829189 7.79481081,4.78095135 C7.79481081,2.96819459 9.26464865,1.49852973 11.0773622,1.49852973 C12.0214486,1.49852973 12.8746378,1.89714595 13.4733838,2.53507027 C14.2211027,2.38787027 14.9236324,2.1147027 15.5580108,1.73852973 C15.3129081,2.5051027 14.7923892,3.14838919 14.1146811,3.55461622 C14.7786811,3.47530811 15.4112865,3.29878919 16,3.03777297 C15.5599568,3.69610811 15.0034595,4.27422703 14.3619892,4.7371027 L14.3619892,4.7371027 Z"></path>
</svg>
<svg id="icon-odnoklassniki" width="16" height="16" viewBox="0 0 16 16" x="192" y="0">
<path fill="#444444" d="M8.00023137,5.98122921 C9.09797933,5.97723056 9.97227314,5.09540987 9.96827449,3.99530976 C9.96427583,2.89473921 9.08810031,2.01903412 7.98988191,2.01809326 C6.88249014,2.01691718 5.99808209,2.90885211 6.00654983,4.01930168 C6.01478235,5.11540314 6.89895518,5.98522786 8.00023137,5.98122921 L8.00023137,5.98122921 Z M8.00587653,-0.0506218398 C10.2451224,-0.0445062523 12.0423995,1.78711222 12.030874,4.05105569 C12.0195837,6.26278145 10.1929047,8.05535425 7.95742226,8.04782737 C5.74475564,8.0403005 3.93007264,6.20585944 3.94324467,3.9896646 C3.95571106,1.74924262 5.77133492,-0.0567374274 8.00587653,-0.0506218398 L8.00587653,-0.0506218398 Z M12.5412903,9.638821 C12.046163,10.1471204 11.4501284,10.5149965 10.7882336,10.771616 C10.162562,11.0141226 9.47691055,11.1361991 8.79808033,11.2175834 C8.90086924,11.3290753 8.9490883,11.3838804 9.01306675,11.4478588 C9.93416833,12.3738999 10.859739,13.2952367 11.7777828,14.2238652 C12.0906186,14.5404644 12.1557731,14.9328029 11.9835958,15.3004438 C11.7956591,15.7026613 11.3739188,15.9670428 10.9601757,15.9385818 C10.6981463,15.9204703 10.4937446,15.7903964 10.3123939,15.6076345 C9.61709863,14.9081053 8.90863134,14.2210426 8.2279194,13.5083414 C8.0291628,13.3008819 7.93413598,13.340398 7.75890087,13.5205726 C7.05960696,14.2408006 6.34878751,14.9495031 5.63396941,15.6544422 C5.31290107,15.9710415 4.93091206,16.0284339 4.55833165,15.8473184 C4.16246496,15.6558535 3.91078501,15.2515191 3.93007264,14.8448325 C3.9437151,14.5705719 4.07872846,14.3602898 4.26737081,14.1725883 C5.179299,13.2625418 6.08840461,12.3496728 6.99774544,11.4375094 C7.05819567,11.3770592 7.11417682,11.3128455 7.20191198,11.2187595 C5.96162378,11.0891561 4.8431769,10.7838472 3.88561702,10.0351581 C3.76659828,9.94201301 3.64405131,9.85216092 3.53585245,9.7477255 C3.11646428,9.34527279 3.07436081,8.88401636 3.40577861,8.40935268 C3.689683,8.00290133 4.16575797,7.89423204 4.66088535,8.12780044 C4.75685303,8.17272649 4.84811641,8.22964849 4.93561636,8.28986351 C6.71995664,9.51603882 9.17136639,9.54967455 10.9627631,8.34466858 C11.1401151,8.2091848 11.3299336,8.09769293 11.5498595,8.04147657 C11.9770098,7.93139599 12.3759343,8.08875477 12.6050336,8.46274647 C12.8672982,8.89013195 12.8642404,9.30693276 12.5412903,9.638821 L12.5412903,9.638821 Z"></path>
</svg>
</svg>
