<?xml version="1.0" encoding="utf-8"?>
<!-- Generated by IcoMoon.io -->
<!DOCTYPE svg PUBLIC "-//W3C//DTD SVG 1.1//EN" "http://www.w3.org/Graphics/SVG/1.1/DTD/svg11.dtd">
<svg version="1.1" xmlns="http://www.w3.org/2000/svg" xmlns:xlink="http://www.w3.org/1999/xlink" width="496" height="48" viewBox="0 0 496 48">
<svg id="icon-add-file" width="16" height="16" viewBox="0 0 16 16" x="0" y="0">
<path fill="#607d8c" d="M11.898 6.461c0 0 0.647-0.505 0.155-1.011s-0.971 0.147-0.971 0.147l-4.951 5.087c0 0-1.16 1.537-2.041 0.608-0.881-0.931 0.591-2.097 0.591-2.097l6.492-6.668c0 0 1.515-1.714 2.939-0.252 1.422 1.462-0.252 3.022-0.252 3.022l-7.295 7.493c0 0-2.334 2.769-4.495 0.55s0.562-4.59 0.562-4.59l5.538-5.69c0 0 0.62-0.532 0.156-1.011-0.467-0.478-0.984 0.16-0.984 0.16l-6.355 6.527c0 0-2.399 2.702 0.28 5.453 2.679 2.753 5.312 0.289 5.312 0.289l8.735-8.972c0 0 1.748-1.98-0.336-4.121s-4.012-0.346-4.012-0.346l-7.516 7.718c0 0-1.925 1.608-0.178 3.401 1.747 1.795 3.284-0.211 3.284-0.211l5.342-5.485z"></path>
</svg>
<svg id="icon-arrow-down" width="16" height="16" viewBox="0 0 16 16" x="32" y="0">
<path fill="#607d8c" d="M12.802 10.009l-4.324 4.324c-0.264 0.264-0.692 0.264-0.956 0l-4.324-4.324c-0.264-0.264-0.264-0.692 0-0.956 0.132-0.132 0.305-0.198 0.478-0.198s0.346 0.066 0.478 0.198l3.171 3.171v-11.549c0-0.373 0.303-0.676 0.676-0.676s0.676 0.303 0.676 0.676v11.549l3.171-3.171c0.264-0.264 0.692-0.264 0.956 0s0.264 0.692 0 0.956v0z"></path>
</svg>
<svg id="icon-arrow-up" width="16" height="16" viewBox="0 0 16 16" x="64" y="0">
<path fill="#607d8c" d="M12.802 4.522l-4.324-4.324c-0.264-0.264-0.692-0.264-0.956 0l-4.324 4.324c-0.264 0.264-0.264 0.692 0 0.956 0.132 0.132 0.305 0.198 0.478 0.198s0.346-0.066 0.478-0.198l3.171-3.171v11.549c0 0.373 0.303 0.676 0.676 0.676s0.676-0.303 0.676-0.676v-11.549l3.171 3.171c0.264 0.264 0.692 0.264 0.956 0s0.264-0.692 0-0.955v0z"></path>
</svg>
<svg id="icon-close" width="16" height="16" viewBox="0 0 16 16" x="96" y="0">
<path fill="#607d8c" d="M10.476 8l5.426-5.426c0.13-0.13 0.13-0.341 0-0.472l-2.004-2.005c-0.063-0.063-0.148-0.098-0.236-0.098s-0.173 0.035-0.236 0.098l-5.426 5.426-5.426-5.426c-0.125-0.125-0.347-0.125-0.472 0l-2.005 2.005c-0.13 0.13-0.13 0.341 0 0.472l5.426 5.426-5.426 5.426c-0.13 0.13-0.13 0.341 0 0.472l2.005 2.005c0.063 0.063 0.147 0.098 0.236 0.098s0.173-0.035 0.236-0.098l5.426-5.426 5.426 5.426c0.063 0.063 0.147 0.098 0.236 0.098s0.173-0.035 0.236-0.098l2.005-2.005c0.13-0.13 0.13-0.342 0-0.472l-5.426-5.426z"></path>
</svg>
<svg id="icon-collapse" width="16" height="16" viewBox="0 0 16 16" x="128" y="0">
<path fill="#607d8c" d="M6.498 8.993h-4.436c-0.273 0-0.495 0.221-0.495 0.493s0.221 0.493 0.495 0.493h3.277l-5.339 5.323 0.699 0.697 5.334-5.319-0.015 3.241c0 0.272 0.221 0.493 0.495 0.493s0.495-0.221 0.495-0.493v-4.437c0-0.146-0.060-0.264-0.156-0.345-0.090-0.090-0.215-0.148-0.353-0.148v0zM13.938 6.021h-3.277l5.339-5.323-0.699-0.697-5.333 5.318 0.015-3.241c0-0.272-0.221-0.493-0.495-0.493s-0.495 0.221-0.495 0.493v4.437c0 0.146 0.060 0.264 0.156 0.345 0.090 0.091 0.214 0.149 0.352 0.149h4.436c0.273 0 0.495-0.221 0.495-0.493s-0.221-0.494-0.494-0.494v0z"></path>
</svg>
<svg id="icon-create-task" width="16" height="16" viewBox="0 0 16 16" x="160" y="0">
<path fill="#607d8c" d="M4.151 7.282l-1.103 1.029 3.547 3.308 7.882-7.352-1.103-1.029-6.778 6.322-2.443-2.279zM12.19 13.905h-10.667v-10.667h7.619v-1.524h-7.619c-0.838 0-1.524 0.686-1.524 1.524v10.667c0 0.838 0.686 1.524 1.524 1.524h10.667c0.838 0 1.524-0.686 1.524-1.524v-6.095h-1.524v6.095z"></path>
</svg>
<svg id="icon-drag" width="16" height="16" viewBox="0 0 16 16" x="192" y="0">
<path fill="#607d8c" d="M15.483 0h-14.966c-0.285 0-0.517 0.232-0.517 0.517v2.298c0 0.285 0.232 0.517 0.517 0.517h14.966c0.285 0 0.517-0.232 0.517-0.517v-2.298c0-0.285-0.232-0.517-0.517-0.517zM15.483 6.032h-14.966c-0.285 0-0.517 0.232-0.517 0.517v2.298c0 0.285 0.232 0.517 0.517 0.517h14.966c0.285 0 0.517-0.232 0.517-0.517v-2.298c0-0.285-0.232-0.517-0.517-0.517zM15.483 12.065h-14.966c-0.285 0-0.517 0.232-0.517 0.517v2.298c0 0.285 0.232 0.517 0.517 0.517h14.966c0.285 0 0.517-0.232 0.517-0.517v-2.298c0-0.285-0.232-0.517-0.517-0.517z"></path>
</svg>
<svg id="icon-expand" width="16" height="16" viewBox="0 0 16 16" x="224" y="0">
<path fill="#607d8c" d="M6.378 8.894l-5.393 5.394 0.015-3.287c0-0.276-0.224-0.5-0.5-0.5s-0.5 0.224-0.5 0.5v4.5c0 0.148 0.061 0.268 0.158 0.349 0.091 0.092 0.217 0.151 0.357 0.151h4.485c0.276 0 0.5-0.224 0.5-0.5s-0.224-0.5-0.5-0.5h-3.315l5.399-5.399-0.707-0.707zM15.842 0.151c-0.090-0.092-0.216-0.151-0.356-0.151h-4.486c-0.276 0-0.5 0.224-0.5 0.5s0.224 0.5 0.5 0.5h3.314l-5.399 5.399 0.707 0.707 5.394-5.394-0.016 3.287c0 0.276 0.224 0.5 0.5 0.5s0.5-0.224 0.5-0.5v-4.5c0-0.148-0.061-0.267-0.158-0.349z"></path>
</svg>
<svg id="icon-focus" width="16" height="16" viewBox="0 0 16 16" x="256" y="0">
<path fill="#607d8c" d="M15.144 7.144h-0.881c-0.381-2.802-2.605-5.026-5.407-5.407v-0.881c0-0.473-0.383-0.856-0.856-0.856s-0.856 0.383-0.856 0.856v0.881c-2.802 0.381-5.026 2.605-5.407 5.407h-0.881c-0.473 0-0.856 0.383-0.856 0.856s0.383 0.856 0.856 0.856h0.881c0.381 2.802 2.605 5.026 5.407 5.407v0.881c0 0.473 0.383 0.856 0.856 0.856s0.856-0.383 0.856-0.856v-0.881c2.802-0.381 5.026-2.605 5.407-5.407h0.881c0.473 0 0.856-0.383 0.856-0.856s-0.383-0.856-0.856-0.856v0zM8.856 12.53v-0.741c0-0.473-0.383-0.856-0.856-0.856s-0.856 0.383-0.856 0.856v0.741c-1.857-0.35-3.323-1.817-3.674-3.674h0.741c0.473 0 0.856-0.383 0.856-0.856s-0.383-0.856-0.856-0.856h-0.741c0.35-1.857 1.817-3.323 3.674-3.674v0.741c0 0.473 0.383 0.856 0.856 0.856s0.856-0.383 0.856-0.856v-0.741c1.857 0.35 3.323 1.817 3.674 3.674h-0.741c-0.473 0-0.856 0.383-0.856 0.856s0.383 0.856 0.856 0.856h0.741c-0.35 1.857-1.817 3.324-3.674 3.674v0z"></path>
</svg>
<svg id="icon-leave-comment" width="16" height="16" viewBox="0 0 16 16" x="288" y="0">
<path fill="#607d8c" d="M13.276 2.863c-1.468-1.159-3.417-1.797-5.488-1.797s-4.020 0.638-5.488 1.797c-1.483 1.17-2.299 2.73-2.299 4.393 0 1 0.307 1.994 0.887 2.873 0.535 0.811 1.304 1.528 2.228 2.080-0.043 0.299-0.272 1.173-1.506 2.214-0.064 0.054-0.089 0.14-0.066 0.219s0.092 0.138 0.174 0.149c0.007 0.001 0.187 0.024 0.506 0.024 0.909 0 2.767-0.181 5.039-1.384 0.175 0.009 0.352 0.014 0.526 0.014 2.071 0 4.020-0.638 5.488-1.797 1.483-1.17 2.299-2.73 2.299-4.393s-0.817-3.223-2.299-4.393v0z"></path>
</svg>
<svg id="icon-more-horizontal" width="16" height="16" viewBox="0 0 16 16" x="320" y="0">
<path fill="#607d8c" d="M2 6c-1.1 0-2 0.9-2 2s0.9 2 2 2 2-0.9 2-2-0.9-2-2-2zM14 6c-1.1 0-2 0.9-2 2s0.9 2 2 2 2-0.9 2-2-0.9-2-2-2zM8 6c-1.1 0-2 0.9-2 2s0.9 2 2 2 2-0.9 2-2-0.9-2-2-2z"></path>
</svg>
<svg id="icon-more-vertical" width="16" height="16" viewBox="0 0 16 16" x="352" y="0">
<path fill="#607d8c" d="M8 4c1.1 0 2-0.9 2-2s-0.9-2-2-2-2 0.9-2 2 0.9 2 2 2zM8 6c-1.1 0-2 0.9-2 2s0.9 2 2 2 2-0.9 2-2-0.9-2-2-2zM8 12c-1.1 0-2 0.9-2 2s0.9 2 2 2 2-0.9 2-2-0.9-2-2-2z"></path>
</svg>
<svg id="icon-reply" width="16" height="16" viewBox="0 0 16 16" x="384" y="0">
<path fill="#607d8c" d="M5.455 1.5v2.516h5.454c2.812 0 5.092 2.365 5.092 5.283v5.534c0-2.919-2.279-5.282-5.092-5.282h-5.454v3.27l-5.455-5.661 5.455-5.661z"></path>
</svg>
<svg id="icon-search" width="16" height="16" viewBox="0 0 16 16" x="416" y="0">
<path fill="#607d8c" d="M15.895 15.391l-5.402-5.401c0.943-1.062 1.521-2.454 1.521-3.982 0-3.313-2.695-6.007-6.007-6.007s-6.007 2.695-6.007 6.007c0 3.312 2.695 6.007 6.007 6.007 1.528 0 2.92-0.578 3.982-1.521l5.401 5.402c0.069 0.069 0.161 0.104 0.252 0.104s0.183-0.035 0.252-0.104c0.14-0.14 0.14-0.365 0-0.505v0zM6.007 11.301c-2.919 0-5.294-2.374-5.294-5.293s2.375-5.294 5.294-5.294c2.919 0 5.293 2.375 5.293 5.294 0 1.331-0.497 2.546-1.311 3.477-0.157 0.179-0.325 0.347-0.505 0.505-0.931 0.814-2.146 1.312-3.477 1.312v0z"></path>
</svg>
<svg id="icon-send" width="16" height="16" viewBox="0 0 16 16" x="448" y="0">
<path fill="#607d8c" d="M0 15.222l16-7.111-16-7.111v5.531l11.429 1.58-11.429 1.58v5.531z"></path>
</svg>
<svg id="icon-triangle-down" width="16" height="16" viewBox="0 0 16 16" x="480" y="0">
<path fill="#607d8c" d="M15.602 4.525l-7.602 7.602-7.82-7.82 0.435-0.435 7.602 7.602h-0.435l7.602-7.602 0.435 0.435-0.218 0.218z"></path>
</svg>
<svg id="icon-triangle-up" width="16" height="16" viewBox="0 0 16 16" x="0" y="32">
<path fill="#607d8c" d="M15.602 11.475l-7.602-7.602-7.82 7.82 0.435 0.435 7.602-7.602h-0.435l7.602 7.602 0.435-0.435-0.218-0.218z"></path>
</svg>
<svg id="icon-plus" width="16" height="16" viewBox="0 0 16 16" x="32" y="32">
<path fill="#607d8c" d="M15.4999906,6.00000375 L9.9999775,6.00000375 L9.9999775,0.500010313 C9.9999775,0.22386014 9.77611778,0 9.49999813,0 L6.50000187,0 C6.22385222,0 5.9999925,0.22386014 5.9999925,0.500010313 L5.9999925,6.00000375 L0.500009375,6.00000375 C0.22385972,6.00000375 0,6.22386389 0,6.50001406 L0,9.50001594 C0,9.77613611 0.22385972,9.99999625 0.500009375,9.99999625 L5.9999925,9.99999625 L5.9999925,15.5000197 C5.9999925,15.7761399 6.22385222,16 6.50000187,16 L9.49999813,16 C9.77611778,16 10.0000075,15.7761399 10.0000075,15.5000197 L10.0000075,9.99999625 L15.4999906,9.99999625 C15.7761103,9.99999625 16,9.77613611 16,9.50001594 L16,6.50001406 C15.99997,6.22386389 15.7761103,6.00000375 15.4999906,6.00000375 L15.4999906,6.00000375 Z"></path>
</svg>
</svg>
