<?xml version="1.0" encoding="utf-8"?>
<!-- Generated by IcoMoon.io -->
<!DOCTYPE svg PUBLIC "-//W3C//DTD SVG 1.1//EN" "http://www.w3.org/Graphics/SVG/1.1/DTD/svg11.dtd">
<svg version="1.1" xmlns="http://www.w3.org/2000/svg" xmlns:xlink="http://www.w3.org/1999/xlink" width="304" height="16" viewBox="0 0 304 16">
<svg id="icon-azerbaijan-manat" width="16" height="16" viewBox="0 0 16 16" x="0" y="0">
<path fill="#444444" d="M5.711 5.295h-0.838c-0.067 0-0.128 0.042-0.151 0.105l-0.907 2.463c-0.164 0.466-0.292 0.852-0.393 1.192-0.097-0.343-0.219-0.729-0.376-1.192l-0.868-2.461c-0.023-0.064-0.084-0.108-0.152-0.108h-0.838c-0.088 0-0.161 0.072-0.161 0.161l-0.012 5.089c0 0.043 0.017 0.084 0.047 0.114s0.071 0.047 0.114 0.047l0.52 0v-0.077l0.002 0.077c0.089 0 0.161-0.072 0.161-0.161 0-0.011-0.001-0.022-0.003-0.032l-0-3.266c0.083 0.268 0.178 0.562 0.29 0.897l0.827 2.424c0.022 0.065 0.084 0.109 0.152 0.109h0.498c0.068 0 0.129-0.043 0.151-0.106l0.894-2.469c0.13-0.356 0.247-0.689 0.352-1.005l-0.001 3.449c0 0.043 0.017 0.083 0.047 0.114s0.071 0.047 0.114 0.047h0.533c0.043 0 0.083-0.017 0.114-0.047s0.047-0.071 0.047-0.114l-0.003-5.089c0-0.089-0.072-0.161-0.161-0.161z"></path>
<path fill="#444444" d="M14.823 5.353h-0.656c-0.089 0-0.161 0.072-0.161 0.161v1.944h-2.111v-1.944c0-0.089-0.072-0.161-0.161-0.161h-0.65c-0.089 0-0.161 0.072-0.161 0.161v5.030c0 0.089 0.072 0.161 0.161 0.161h0.65c0.089 0 0.161-0.072 0.161-0.161v-2.197h2.111v2.197c0 0.089 0.072 0.161 0.161 0.161h0.656c0.089 0 0.161-0.072 0.161-0.161v-5.030c-0-0.089-0.072-0.161-0.161-0.161z"></path>
<path fill="#444444" d="M8.226 5.367c-0.557 0-1.070 0.14-1.527 0.416-0.065 0.039-0.094 0.119-0.069 0.19l0.149 0.432c0.016 0.046 0.051 0.081 0.096 0.098s0.096 0.012 0.137-0.011c0.338-0.194 0.763-0.305 1.165-0.305 0.662 0 0.97 0.34 0.97 1.070v0.025c-1.869 0.008-2.817 0.654-2.817 1.921 0 0.692 0.395 1.501 1.509 1.501 0.58 0 1.115-0.232 1.466-0.628l0.001 0.373c0.010 0.081 0.078 0.142 0.16 0.142h0.519c0.047 0 0.092-0.020 0.122-0.056s0.045-0.083 0.038-0.118l0.002-2.946c0-1.397-0.646-2.105-1.92-2.105zM7.948 9.885c-0.484 0-0.773-0.293-0.773-0.784 0-0.691 0.632-1.041 1.877-1.041 0.023 0 0.046 0 0.069 0l0 0.785c0 0.078-0.017 0.171-0.046 0.261-0.123 0.359-0.492 0.778-1.126 0.778z"></path>
</svg>
<svg id="icon-belarus-ruble" width="16" height="16" viewBox="0 0 16 16" x="32" y="0">
<path fill="#444444" d="M7.080 3.014c-0.93 0-1.649 0.336-2.191 1.024l-0.002-0.722c-0-0.081-0.066-0.147-0.147-0.147l-1.035-0.001c-0.039 0-0.076 0.015-0.104 0.043s-0.043 0.065-0.043 0.104l-0.003 9.523c0 0.039 0.016 0.077 0.043 0.104s0.065 0.043 0.104 0.043h1.074c0.081 0 0.148-0.066 0.148-0.147v-3.264c0.461 0.511 1.158 0.801 1.948 0.801 1.572 0 3.265-1.182 3.265-3.778 0-2.076-1.285-3.582-3.056-3.582zM6.889 9.12c-1.112 0-2.017-1.087-2.017-2.423s0.905-2.423 2.017-2.423c1.113 0 2.018 1.087 2.018 2.423s-0.905 2.423-2.018 2.423z"></path>
<path fill="#444444" d="M11.418 8.308c-0.595 0-1.027 0.407-1.027 0.967 0 0.577 0.422 0.98 1.027 0.98s1.027-0.397 1.027-0.966c0-0.568-0.432-0.98-1.027-0.98z"></path>
</svg>
<svg id="icon-usa-dollar" width="16" height="16" viewBox="0 0 16 16" x="64" y="0">
<path fill="#444444" d="M11.039 10.146c0-1.276-0.833-2.112-2.472-2.491v-3.323c1.186 0.122 1.396 0.68 1.396 1.816 0 0.058 0.027 0.113 0.073 0.149s0.106 0.048 0.163 0.034l0.622-0.159c0.087-0.022 0.146-0.102 0.142-0.192-0.071-1.556-0.504-2.512-2.395-2.665v-1.951c0-0.070-0.056-0.126-0.126-0.126h-0.882c-0.070 0-0.126 0.056-0.126 0.126v1.957c-1.605 0.161-2.421 1.044-2.421 2.635 0 1.263 0.816 2.095 2.421 2.48v3.342c-1.471-0.107-1.472-0.688-1.472-1.823 0-0.057-0.025-0.11-0.069-0.146s-0.102-0.050-0.157-0.039l-0.622 0.127c-0.091 0.019-0.155 0.1-0.151 0.193 0.061 1.522 0.278 2.557 2.472 2.702v1.844c0 0.070 0.056 0.126 0.126 0.126h0.882c0.070 0 0.126-0.056 0.126-0.126v-1.855c1.639-0.161 2.472-1.044 2.472-2.635zM10.026 10.146c0 0.957-0.468 1.479-1.459 1.614v-3.032c0.968 0.329 1.459 0.804 1.459 1.418zM7.433 7.357c-0.934-0.328-1.408-0.797-1.408-1.401 0-0.956 0.452-1.477 1.408-1.613v3.014z"></path>
</svg>
<svg id="icon-euro" width="16" height="16" viewBox="0 0 16 16" x="96" y="0">
<path fill="#444444" d="M12.176 11.338c-0.676 0.711-1.541 1.102-2.436 1.102-1.467 0-2.738-1.030-3.336-2.52h4.076c0.353 0 0.64-0.287 0.64-0.64s-0.287-0.64-0.64-0.64h-4.401c-0.025-0.209-0.039-0.423-0.039-0.64 0-0.245 0.017-0.485 0.049-0.72h4.391c0.353 0 0.64-0.287 0.64-0.64s-0.287-0.64-0.64-0.64h-4.042c0.611-1.446 1.861-2.44 3.302-2.44 0.895 0 1.76 0.392 2.436 1.102 0.243 0.256 0.648 0.267 0.905 0.023s0.266-0.649 0.023-0.905c-0.92-0.968-2.114-1.5-3.364-1.5-2.134 0-3.957 1.55-4.665 3.72h-1.715c-0.353 0-0.64 0.287-0.64 0.64s0.287 0.64 0.64 0.64h1.441c-0.026 0.236-0.041 0.476-0.041 0.72 0 0.216 0.011 0.43 0.032 0.64h-1.432c-0.353 0-0.64 0.287-0.64 0.64s0.287 0.64 0.64 0.64h1.69c0.688 2.212 2.531 3.8 4.69 3.8 1.25 0 2.444-0.533 3.364-1.5 0.243-0.256 0.233-0.661-0.023-0.905s-0.661-0.233-0.905 0.023z"></path>
</svg>
<svg id="icon-rus-ruble" width="12" height="16" viewBox="0 0 12 16" x="128" y="0">
<path fill="#444444" d="M6.425 0.042c0.909 0 1.625 0.066 2.147 0.196 0.523 0.132 0.939 0.274 1.247 0.427 0.231 0.123 0.457 0.277 0.682 0.462 0.222 0.185 0.427 0.416 0.611 0.694s0.33 0.6 0.44 0.97c0.106 0.369 0.162 0.794 0.162 1.269 0 0.447-0.047 0.851-0.14 1.213-0.091 0.362-0.216 0.688-0.37 0.981s-0.319 0.547-0.496 0.762c-0.176 0.217-0.35 0.393-0.518 0.531-0.354 0.307-0.733 0.554-1.132 0.738s-0.801 0.323-1.201 0.416c-0.399 0.094-0.789 0.15-1.165 0.174-0.379 0.022-0.721 0.035-1.029 0.035h-1.2v1.384h6.926v0.878h-6.928v3.625l2.424 0.415v0.854h-6.786v-0.854l2.217-0.415v-3.625h-2.217v-0.878h2.217v-1.384h-2.217v-0.878h2.217v-6.719l-2.217-0.416v-0.854h6.325zM5.549 8.030c0.184 0 0.406-0.009 0.669-0.023s0.534-0.058 0.82-0.126c0.285-0.070 0.569-0.174 0.854-0.312s0.534-0.323 0.75-0.554c0.124-0.138 0.281-0.393 0.475-0.762 0.19-0.369 0.287-0.907 0.287-1.616 0-0.785-0.127-1.405-0.381-1.858s-0.535-0.804-0.844-1.051c-0.354-0.277-0.782-0.48-1.282-0.611-0.498-0.13-1.049-0.197-1.65-0.197h-0.786v7.112h1.086z"></path>
</svg>
<svg id="icon-georgian-lari" width="17" height="16" viewBox="0 0 17 16" x="160" y="0">
<path fill="#444444" d="M7.735 1.081l-0.884 0.887-0.11 0.101 0.003 1.249-0.119 0.037-0.097 0.034-0.103 0.032-0.078 0.034-0.090 0.035-0.099 0.037-0.089 0.043-0.091 0.039-0.082 0.039-0.069 0.032-0.085 0.046-0.067 0.039-0.069 0.039-0.085 0.046-0.068 0.037-0.097 0.059-0.107 0.069-0.115 0.078-0.089 0.058-0.101 0.076-0.064 0.050-0.156 0.123-0.080 0.064-0.073 0.059-0.057 0.057-0.069 0.064-0.126 0.119-0.055 0.053-0.045 0.046-0.060 0.058-0.073 0.078-0.069 0.074-0.044 0.059-0.055 0.060-0.050 0.066-0.050 0.064-0.048 0.064-0.050 0.061-0.045 0.060-0.046 0.057-0.035 0.053-0.041 0.066-0.043 0.069-0.037 0.050-0.035 0.053-0.055 0.089-0.025 0.051-0.030 0.053-0.043 0.069-0.034 0.053-0.020 0.053-0.041 0.069-0.039 0.071-0.043 0.087-0.032 0.082-0.035 0.087-0.036 0.073-0.028 0.064-0.027 0.075-0.041 0.092-0.032 0.096-0.046 0.137-0.025 0.083-0.028 0.094-0.025 0.087-0.021 0.087-0.055 0.241-0.014 0.075-0.023 0.087-0.016 0.106-0.011 0.071-0.016 0.112-0.016 0.123-0.016 0.195-0.013 0.137-0.005 0.105-0.002 0.126 0.002 0.307 0.003 0.101 0.011 0.145 0.009 0.119 0.009 0.085 0.009 0.091 0.009 0.073 0.016 0.091 0.013 0.087 0.013 0.078 0.016 0.078 0.014 0.067 0.021 0.094 0.019 0.082 0.018 0.083 0.028 0.090 0.023 0.092 0.023 0.078 0.021 0.067 0.023 0.078 0.027 0.073 0.027 0.078 0.057 0.144 0.025 0.059 0.034 0.083 0.034 0.082 0.037 0.076 0.032 0.076 0.032 0.062 0.032 0.057 0.037 0.082 0.034 0.062 0.034 0.064 0.037 0.064 0.023 0.041 0.023 0.039 0.034 0.055 0.030 0.051 0.028 0.045 0.034 0.046 0.028 0.050 0.045 0.067 0.039 0.057 0.043 0.057 0.030 0.046 0.034 0.044 0.043 0.055 0.035 0.046 0.050 0.060 0.062 0.075 0.051 0.067 0.060 0.066 0.045 0.055 0.048 0.048 0.057 0.060 0.051 0.057 0.051 0.051 0.039 0.037 0.048 0.044 0.050 0.050 0.043 0.039 0.046 0.043 0.037 0.035 0.050 0.043 0.046 0.043 0.041 0.028 0.037 0.036 0.039 0.030 0.032 0.023 0.035 0.029 0.043 0.034 0.041 0.032 0.045 0.032 0.048 0.035 0.043 0.032 0.030 0.020 0.025 0.019 0.028 0.019 0.030 0.021 0.026 0.018 0.023 0.012h-1.661l-0.983 0.983h9.88l0.98-0.983-5.261-0.003-0.135-0.014-0.195-0.016-0.179-0.035-0.138-0.025-0.144-0.034-0.124-0.027-0.137-0.034-0.091-0.027-0.144-0.051-0.123-0.044-0.105-0.037-0.097-0.041-0.101-0.051-0.092-0.045-0.119-0.055-0.117-0.064-0.105-0.062-0.101-0.060-0.076-0.050-0.099-0.059-0.091-0.067-0.078-0.050-0.076-0.057-0.087-0.073-0.089-0.071-0.091-0.080-0.087-0.075-0.092-0.090-0.085-0.083-0.059-0.057-0.069-0.083-0.11-0.117-0.069-0.085-0.076-0.094c0 0-0.067-0.090-0.067-0.098s-0.066-0.083-0.066-0.083l-0.074-0.112-0.061-0.089-0.060-0.094-0.057-0.098-0.048-0.082-0.041-0.082-0.061-0.112-0.046-0.106-0.045-0.103-0.050-0.106-0.034-0.080-0.028-0.073-0.030-0.092-0.041-0.128-0.042-0.135-0.043-0.151-0.027-0.129-0.029-0.142-0.027-0.121-0.018-0.144-0.014-0.135-0.014-0.153-0.007-0.089-0.007-0.103v-0.094l0.002-0.089 0.005-0.092 0.003-0.147 0.007-0.11 0.005-0.115 0.009-0.080 0.014-0.11 0.016-0.101 0.013-0.103 0.018-0.087 0.023-0.108 0.018-0.089 0.016-0.067 0.023-0.089 0.025-0.076 0.029-0.106 0.028-0.076 0.037-0.106 0.035-0.099 0.036-0.087 0.039-0.11 0.050-0.106 0.035-0.064 0.041-0.087 0.046-0.092 0.037-0.069 0.051-0.090 0.059-0.091 0.039-0.071 0.046-0.067 0.067-0.098 0.057-0.082 0.051-0.076 0.053-0.071 0.046-0.064 0.043-0.048 0.051-0.057 0.041-0.051 0.039-0.043 0.048-0.048 0.041-0.050 0.060-0.055 0.053-0.055 0.107-0.103 0.037-0.039 0.099-0.089 0.044-0.041 0.053-0.046 0.062-0.048 0.059-0.044 0.059-0.046 0.060-0.037 0.073-0.055 0.069-0.050 0.075-0.048 0.053-0.039 0.071-0.041 0.064-0.039 0.048-0.032 0.061-0.027 0.046-0.029 0.062-0.032 0.069-0.035 0.069-0.032 0.041-0.025 0.066-0.025 0.057-0.025 0.066-0.030 0.053-0.023 0.053-0.021 0.052-0.018 0.028-0.013v4.626l0.988-0.985 0.002-3.897 0.012-0.005 0.043-0.007 0.050-0.005 0.067-0.011 0.066-0.005 0.042-0.002 0.001 0.001 0.017 0.002 0.082-0.009 0.089-0.005 0.107-0.003 0.331-0.002 0.121 0.006 0.103 0.007 0.077 0.007 0.074 0.008 0.080 0.010 0.060 0.009 0.053 0.007 0.002 4.882 0.991-0.985v-3.639l0.015 0.004 0.034 0.014 0.047 0.019 0.063 0.023 0.044 0.021 0.064 0.028 0.071 0.032 0.066 0.032 0.065 0.033 0.071 0.035 0.079 0.042 0.056 0.029 0.050 0.027 0.042 0.029 0.049 0.028 0.040 0.021 0.051 0.034 0.045 0.029 0.054 0.033 0.047 0.032 0.047 0.034 0.048 0.034 0.047 0.033 0.055 0.042 0.050 0.039 0.039 0.031 0.042 0.034 0.045 0.035 0.049 0.040 0.059 0.055 0.050 0.044 0.048 0.046 0.052 0.046 0.051 0.053 0.039 0.032 0.036 0.039 0.059 0.062 0.051 0.054 0.034 0.040 0.036 0.041 0.054 0.061 0.057 0.069 0.048 0.058 0.027 0.043 0.035 0.050 0.043 0.055 0.035 0.047 0.034 0.047 0.033 0.048 0.039 0.058 0.034 0.054 0.031 0.046 0.028 0.041 0.028 0.045 0.028 0.044 0.026 0.050 0.023 0.045 0.029 0.054 0.026 0.042 0.020 0.040 0.023 0.049 0.020 0.035 0.020 0.041 0.031 0.066 0.031 0.072 0.018 0.037 0.017 0.040 0.017 0.039 0.015 0.040 0.018 0.050 0.015 0.040 0.021 0.044 0.014 0.036 0.012 0.036 0.016 0.049 0.011 0.035 0.015 0.048 0.014 0.052 0.016 0.052 0.018 0.054 0.018 0.071 0.016 0.058 0.021 0.096 0.012 0.050 0.012 0.055 0.014 0.075 0.004 0.014 0.010 0.059 0.013 0.069 0.009 0.075 0.010 0.075 0.012 0.095 0.010 0.087 0.007 0.103 0.006 0.092 0.007 0.12 0.004 0.135 0.911-0.911 0.002-0.017-0.005-0.039-0.008-0.049-0.009-0.051-0.007-0.040-0.011-0.061-0.013-0.053-0.009-0.050-0.021-0.085-0.011-0.045-0.014-0.055-0.031-0.114-0.014-0.053-0.013-0.043-0.014-0.050-0.018-0.056-0.018-0.059-0.025-0.074-0.020-0.058-0.018-0.057-0.022-0.055-0.018-0.047-0.023-0.068-0.023-0.052-0.021-0.046-0.024-0.057-0.023-0.052-0.028-0.067-0.023-0.052-0.026-0.048-0.028-0.060-0.023-0.045-0.029-0.061-0.025-0.045-0.026-0.048-0.029-0.051-0.034-0.057-0.031-0.058-0.027-0.045-0.029-0.050-0.028-0.043-0.028-0.050-0.026-0.040-0.032-0.045-0.022-0.035-0.023-0.030-0.034-0.053-0.035-0.050-0.031-0.043-0.029-0.040-0.034-0.045-0.035-0.045-0.035-0.045-0.020-0.030-0.032-0.036-0.020-0.025-0.034-0.043-0.032-0.038-0.035-0.042-0.054-0.064-0.045-0.051-0.042-0.042-0.040-0.044-0.044-0.045-0.065-0.066-0.056-0.052-0.046-0.045-0.056-0.055-0.050-0.049-0.045-0.037-0.058-0.055-0.049-0.040-0.041-0.037-0.054-0.042-0.046-0.037-0.053-0.044-0.051-0.038-0.057-0.041-0.050-0.036-0.058-0.045-0.055-0.039-0.044-0.033-0.046-0.030-0.049-0.031-0.055-0.034-0.058-0.037-0.053-0.035-0.046-0.028-0.055-0.030-0.049-0.029-0.055-0.029-0.058-0.034-0.050-0.026-0.058-0.030-0.056-0.028-0.050-0.025-0.069-0.033-0.062-0.029-0.064-0.030-0.079-0.034-0.059-0.026-0.068-0.026-0.059-0.023-0.054-0.019-0.059-0.021-0.079-0.030-0.059-0.019-0.066-0.023-0.054-0.016-0.034-0.006-0.002-2.237-0.993 0.987 0.001 1.039-0.080-0.013-0.106-0.012-0.084-0.009-0.142-0.011-0.21-0.007-0.19 0.002-0.124 0.002-0.145 0.005-0.1 0.005-0.026 0.006-0 0-0.086 0.007-0.089 0.007-0.062 0.013-0.029 0.012-0.002-2.037z"></path>
</svg>
<svg id="icon-kzt-tenge" width="12" height="16" viewBox="0 0 12 16" x="192" y="0">
<path fill="#444444" d="M0 0h11.789v1.684h-11.789v-1.684z"></path>
<path fill="#444444" d="M11.789 2.526v1.684h-5.053v11.789h-1.684v-11.789h-5.053v-1.684h11.789z"></path>
</svg>
<svg id="icon-ukraine-uah" width="16" height="16" viewBox="0 0 16 16" x="224" y="0">
<path fill="#444444" d="M11.44 8.678h-3.404c0.343-0.264 0.697-0.507 1.003-0.741 0.076-0.058 0.149-0.117 0.222-0.177h2.178c0.309 0 0.56-0.251 0.56-0.56s-0.251-0.56-0.56-0.56h-1.143c0.156-0.239 0.289-0.495 0.386-0.777 0.252-0.728 0.126-1.567-0.295-2.204-1.062-1.607-3.245-1.488-4.765-0.69-0.64 0.336-0.073 1.303 0.565 0.967 0.754-0.396 1.592-0.575 2.417-0.304 0.564 0.186 1.033 0.698 1.082 1.3 0.055 0.683-0.358 1.255-0.835 1.708h-4.293c-0.309 0-0.56 0.251-0.56 0.56s0.251 0.56 0.56 0.56h2.854c-0.261 0.192-0.517 0.391-0.756 0.611-0.105 0.096-0.203 0.2-0.296 0.307h-1.802c-0.309 0-0.56 0.251-0.56 0.56s0.251 0.56 0.56 0.56h1.148c-0.364 1.011-0.249 2.158 0.57 3.003 1.133 1.169 3.076 0.882 4.391 0.241 0.649-0.316 0.081-1.282-0.565-0.967-1.018 0.496-2.884 0.762-3.368-0.601-0.232-0.655-0.11-1.202 0.19-1.677h4.513c0.309 0 0.56-0.251 0.56-0.56s-0.251-0.56-0.56-0.56z"></path>
</svg>
<svg id="icon-china-yen" width="16" height="16" viewBox="0 0 16 16" x="256" y="0">
<path fill="#444444" d="M12.541 9.681c0 0.262-0.212 0.474-0.474 0.474h-3.221v3.328c0 0.411-0.333 0.745-0.745 0.745s-0.745-0.333-0.745-0.745v-3.328h-3.424c-0.262 0-0.474-0.212-0.474-0.474s0.212-0.474 0.474-0.474h3.424v-1.317l-0.027-0.036h-3.397c-0.262 0-0.474-0.212-0.474-0.474s0.212-0.474 0.474-0.474h2.695l-2.926-3.945c-0.245-0.33-0.176-0.797 0.154-1.042s0.797-0.176 1.042 0.155l3.186 4.296 3.009-4.26c0.237-0.336 0.702-0.416 1.038-0.179s0.416 0.702 0.179 1.038l-2.781 3.937h2.54c0.262 0 0.474 0.212 0.474 0.474s-0.212 0.474-0.474 0.474h-3.209l-0.012 0.017v1.337h3.221c0.262 0 0.474 0.212 0.474 0.474z"></path>
</svg>
</svg>
