<?xml version="1.0" encoding="utf-8"?>
<!-- Generator: Adobe Illustrator 19.1.1, SVG Export Plug-In . SVG Version: 6.00 Build 0)  -->
<svg version="1.1" id="Layer_1" xmlns="http://www.w3.org/2000/svg" xmlns:xlink="http://www.w3.org/1999/xlink" x="0px" y="0px"
	 viewBox="-3 -3 28 28" style="enable-background:new -3 -3 28 28;" xml:space="preserve">
<style type="text/css">
	.st0{fill:#8AC248;}
</style>
<g>
	<g>
		<g>
			<path class="st0" d="M20,6.9c0-0.5-0.4-1.2-0.9-1.5l-7.2-4c-0.5-0.3-1.3-0.3-1.7,0l-7.2,4C2.4,5.6,2,6.3,2,6.9l0,8.1
				c0,0.5,0.4,1.2,0.9,1.5l7.2,4c0.5,0.3,1.3,0.3,1.7,0l7.3-4c0.5-0.3,0.9-0.9,0.9-1.5L20,6.9z M10.1,3.4c0.5-0.3,1.3-0.3,1.7,0
				l4.5,2.5c0.5,0.3,0.5,0.7,0,1l-4.5,2.5c-0.5,0.3-1.3,0.3-1.7,0L5.6,6.8c-0.5-0.3-0.5-0.7,0-1L10.1,3.4z M3.8,8.9
				c0-0.5,0.4-0.8,0.9-0.5l4.5,2.5c0.5,0.3,0.9,0.9,0.9,1.5l0,5c0,0.5-0.4,0.8-0.9,0.5l-4.5-2.5c-0.5-0.3-0.9-0.9-0.9-1.5L3.8,8.9z
				 M12.8,17.9c-0.5,0.3-0.9,0-0.9-0.5l0-5c0-0.5,0.4-1.2,0.9-1.5l4.5-2.5c0.5-0.3,0.9,0,0.9,0.5l0,5c0,0.5-0.4,1.2-0.9,1.5
				L12.8,17.9z M11.9,18.4"/>
		</g>
	</g>
</g>
</svg>
