<?xml version="1.0" encoding="utf-8"?>
<!-- Generator: Adobe Illustrator 19.1.1, SVG Export Plug-In . SVG Version: 6.00 Build 0)  -->
<svg version="1.1" id="Isolation_Mode" xmlns="http://www.w3.org/2000/svg" xmlns:xlink="http://www.w3.org/1999/xlink" x="0px"
	 y="0px" viewBox="462.4 413.3 48 48" style="enable-background:new 462.4 413.3 48 48;" xml:space="preserve">
<style type="text/css">
	.st0{fill:#42A5F5;}
	.st1{fill:#8BC34A;}
	.st2{fill:#FF3D00;}
	.st3{fill:#FFC107;}
	.st4{fill:#FFFFFF;}
</style>
<g id="logo_x2B__x2B_-copy" transform="translate(398.000000, 32.000000)">
	<path id="Oval-30" class="st0" d="M107.7,399.9c0.5,1.7,0.7,3.5,0.7,5.4c0,11-9,20-20,20
		c-7.6,0-14.2-4.2-17.6-10.5l3.1-1.3c2.9,5.1,8.3,8.5,14.5,8.5c9.2,0,16.7-7.5,16.7-16.7c0-1.5-0.2-2.9-0.5-4.2L107.7,399.9
		L107.7,399.9L107.7,399.9z"/>
	<path id="Path" class="st1" d="M106.8,397.4c-3.1-7.1-10.1-12-18.3-12c-0.3,0-0.6,0-0.8,0l0.4,3.4
		c0.2,0,0.4,0,0.5,0c6.8,0,12.6,4,15.2,9.9L106.8,397.4L106.8,397.4L106.8,397.4z"/>
	<path id="Path_1_" class="st2" d="M68.4,405.3c0,2.5,0.4,4.8,1.3,7l3.1-1.3c-0.6-1.8-1-3.7-1-5.7
		c0-2.6,0.6-5,1.6-7.2l-2.9-1.9C69.2,399,68.4,402.1,68.4,405.3L68.4,405.3z"/>
	<path id="Path_2_" class="st3" d="M72,394l2.9,1.9c2.4-3.4,6.1-5.9,10.4-6.8l-0.4-3.4
		C79.5,386.6,74.9,389.7,72,394L72,394z"/>
	<g>
		<path class="st4" d="M87.3,410l-0.1-0.7c-0.2-1.4,0.3-3,1.7-4.6c1.2-1.4,1.9-2.5,1.9-3.7c0-1.4-0.9-2.3-2.5-2.3
			c-1,0-2,0.3-2.7,0.8l-0.6-1.7c0.9-0.6,2.4-1.1,3.8-1.1c3.1,0,4.5,1.9,4.5,3.9c0,1.8-1,3.1-2.3,4.6c-1.2,1.4-1.6,2.6-1.5,3.9
			l0.1,0.7H87.3z M86.7,413.8c0-1,0.7-1.7,1.6-1.7c1,0,1.6,0.7,1.6,1.7c0,0.9-0.6,1.7-1.6,1.7C87.4,415.4,86.7,414.7,86.7,413.8z"/>
	</g>
</g>
</svg>
