<?xml version="1.0" encoding="utf-8"?>
<!-- Generator: Adobe Illustrator 19.1.1, SVG Export Plug-In . SVG Version: 6.00 Build 0)  -->
<svg version="1.1" id="Layer_1" xmlns="http://www.w3.org/2000/svg" xmlns:xlink="http://www.w3.org/1999/xlink" x="0px" y="0px"
	 viewBox="-13.6 7.1 28 28" style="enable-background:new -13.6 7.1 28 28;" xml:space="preserve">
<style type="text/css">
	.st0{fill:#FEC110;}
</style>
<g>
	<path class="st0" d="M-3.8,16.9h0.7c0.9,0,1.6,0.5,2,1.4c0.4-0.7,0.7-1.4,1.2-2c-0.8-1-1.9-1.6-3.2-1.6h-0.7c-0.4-1.1-1.5-2-2.8-2
		c-1.6,0-3,1.4-3,3.2s1.3,3.2,3,3.2C-5.3,19-4.2,18.1-3.8,16.9L-3.8,16.9z M-7.6,15.8c0-0.6,0.4-1.1,1-1.1s1,0.5,1,1.1
		c0,0.6-0.4,1.1-1,1.1C-7.1,16.9-7.6,16.4-7.6,15.8L-7.6,15.8z"/>
	<path class="st0" d="M4.6,25.4H4.2c-1,0-1.9-0.6-2.4-1.4c-0.3,0.7-0.6,1.4-1.1,1.9c0.9,1,2.1,1.6,3.5,1.6h0.4
		c0.4,1.2,1.5,2.1,2.8,2.1c1.7,0,3-1.4,3-3.2c0-1.8-1.3-3.2-3-3.2C6.1,23.3,5,24.2,4.6,25.4L4.6,25.4z M8.4,26.5
		c0,0.6-0.4,1.1-1,1.1s-1-0.5-1-1.1c0-0.6,0.4-1.1,1-1.1C8,25.4,8.4,25.9,8.4,26.5L8.4,26.5z"/>
	<path class="st0" d="M-3.7,27.5c2.9-0.4,5.2-3.1,5.2-6.3c0-2.1,1.4-3.8,3.2-4.2c0.4,1.2,1.5,2,2.8,2c1.7,0,3-1.4,3-3.2
		s-1.3-3.2-3-3.2c-1.3,0-2.4,0.9-2.8,2.2c-3,0.5-5.3,3.1-5.3,6.4c0,2.1-1.4,3.8-3.2,4.2c-0.4-1.2-1.5-2-2.8-2c-1.6,0-3,1.4-3,3.2
		s1.3,3.2,3,3.2C-5.2,29.7-4.1,28.7-3.7,27.5L-3.7,27.5z M8.4,15.8c0,0.6-0.4,1.1-1,1.1s-1-0.5-1-1.1c0-0.6,0.4-1.1,1-1.1
		C8,14.8,8.4,15.3,8.4,15.8L8.4,15.8z M-7.6,26.5c0-0.6,0.4-1.1,1-1.1s1,0.5,1,1.1c0,0.6-0.4,1.1-1,1.1C-7.1,27.5-7.6,27.1-7.6,26.5
		L-7.6,26.5z"/>
</g>
</svg>
