<?xml version="1.0" encoding="utf-8"?>
<!-- Generated by IcoMoon.io -->
<!DOCTYPE svg PUBLIC "-//W3C//DTD SVG 1.1//EN" "http://www.w3.org/Graphics/SVG/1.1/DTD/svg11.dtd">
<svg version="1.1" xmlns="http://www.w3.org/2000/svg" xmlns:xlink="http://www.w3.org/1999/xlink" width="464" height="16" viewBox="0 0 464 16">
<svg id="icon-info" width="16" height="16" viewBox="0 0 16 16" x="0" y="0">
<path fill="#607d8c" d="M16 8c0-4.418-3.582-8-8-8s-8 3.582-8 8c0 4.418 3.582 8 8 8s8-3.582 8-8zM6.020 4.75c-0.056 0.060-0.093 0.101-0.122 0.131 0.046-0.049 0.105-0.113 0.126-0.136 0.003-0.003 0.005-0.006 0.008-0.008 0.433-0.467 1.028-0.7 1.785-0.7 0.7 0 1.26 0.199 1.681 0.599s0.631 0.911 0.631 1.532c0 0.377-0.078 0.682-0.232 0.916s-0.465 0.579-0.935 1.033c-0.341 0.331-0.562 0.61-0.663 0.839s-0.152 0.567-0.152 1.015h-0.948c0-0.508 0.060-0.917 0.181-1.228s0.385-0.667 0.793-1.068l0.426-0.421c0.128-0.121 0.231-0.247 0.308-0.378 0.142-0.231 0.213-0.471 0.213-0.719 0-0.348-0.103-0.649-0.311-0.905s-0.551-0.384-1.031-0.384c-0.593 0-1.004 0.22-1.231 0.66-0.127 0.245-0.201 0.599-0.218 1.060h-0.948c0-0.76 0.213-1.373 0.638-1.838v0zM6.020 4.75c0.004-0.004 0.008-0.008 0.012-0.013 0 0-0.003 0.003-0.008 0.008-0.001 0.002-0.003 0.003-0.004 0.005v0zM0.727 8c0-4.017 3.256-7.273 7.273-7.273s7.273 3.256 7.273 7.273c0 4.017-3.256 7.273-7.273 7.273s-7.273-3.256-7.273-7.273zM7.177 10.855h1.060v1.108h-1.060v-1.108z"></path>
</svg>
<svg id="icon-window" width="17" height="16" viewBox="0 0 17 16" x="32" y="0">
<path fill="#607d8c" d="M2.133 2.743h1.067v-1.097h-1.067v1.097zM16.533 0h-16c-0.294 0-0.533 0.246-0.533 0.549v14.263c0 0.303 0.239 0.549 0.533 0.549h16c0.294 0 0.533-0.246 0.533-0.549v-14.263c0-0.303-0.239-0.549-0.533-0.549v0zM16 13.714c0 0.303-0.239 0.549-0.533 0.549h-13.867c-0.294 0-0.533-0.246-0.533-0.549v-9.326h14.933v9.326zM16 3.291h-14.933v-1.646c0-0.303 0.239-0.549 0.533-0.549h13.867c0.294 0 0.533 0.246 0.533 0.549v1.646zM4.267 2.743h1.067v-1.097h-1.067v1.097zM6.4 2.743h1.067v-1.097h-1.067v1.097z"></path>
</svg>
<svg id="icon-calendar" width="16" height="16" viewBox="0 0 16 16" x="64" y="0">
<path fill="#607d8c" d="M14.667 1.5h-2.167v-1c0-0.277-0.223-0.5-0.5-0.5s-0.5 0.224-0.5 0.5v1h-3v-1c0-0.277-0.224-0.5-0.5-0.5s-0.5 0.224-0.5 0.5v1h-3v-1c0-0.277-0.224-0.5-0.5-0.5s-0.5 0.224-0.5 0.5v1h-2.167c-0.737 0-1.333 0.596-1.333 1.333v11.834c0 0.736 0.597 1.333 1.333 1.333h13.334c0.736 0 1.333-0.597 1.333-1.334v-11.834c0-0.736-0.597-1.333-1.333-1.333v0zM15 14.666c0 0.184-0.149 0.334-0.333 0.334h-13.334c-0.184 0-0.334-0.149-0.334-0.334v-11.834c0-0.183 0.15-0.333 0.334-0.333h2.167v1c0 0.276 0.224 0.5 0.5 0.5s0.5-0.224 0.5-0.5v-1h3v1c0 0.276 0.224 0.5 0.5 0.5s0.5-0.224 0.5-0.5v-1h3v1c0 0.276 0.223 0.5 0.5 0.5s0.5-0.224 0.5-0.5v-1h2.167c0.184 0 0.333 0.15 0.333 0.333v11.834zM3.5 6h2v1.5h-2v-1.5zM3.5 8.5h2v1.5h-2v-1.5zM3.5 11h2v1.5h-2v-1.5zM7 11h2v1.5h-2v-1.5zM7 8.5h2v1.5h-2v-1.5zM7 6h2v1.5h-2v-1.5zM10.5 11h2v1.5h-2v-1.5zM10.5 8.5h2v1.5h-2v-1.5zM10.5 6h2v1.5h-2v-1.5z"></path>
</svg>
<svg id="icon-customers" width="16" height="16" viewBox="0 0 16 16" x="96" y="0">
<path fill="#607d8c" d="M15.945 12.375l-1.274-2.924c-0.058-0.134-0.161-0.245-0.288-0.312l-1.978-1.049c-0.044-0.023-0.096-0.019-0.136 0.012-0.218 0.168-0.451 0.305-0.695 0.409l1.179 0.625c0.268 0.142 0.483 0.375 0.606 0.657l1.416 3.249c0.035 0.080 0.062 0.162 0.081 0.246h0.507c0.217 0 0.416-0.11 0.534-0.295s0.136-0.416 0.048-0.617zM3.247 9.135l1.179-0.625c-0.244-0.105-0.477-0.241-0.695-0.409-0.039-0.030-0.092-0.035-0.136-0.012l-1.978 1.049c-0.128 0.068-0.23 0.179-0.288 0.312l-1.274 2.924c-0.088 0.202-0.070 0.432 0.048 0.617s0.318 0.295 0.534 0.295h0.507c0.019-0.083 0.046-0.166 0.081-0.246l1.416-3.249c0.123-0.281 0.338-0.515 0.606-0.657zM5.513 7.938c0.047 0 0.079-0.013 0.101-0.034-0.027-0.030-0.053-0.060-0.079-0.090-0.628-0.748-0.973-1.737-0.973-2.784 0-1.371 0.339-2.41 1.007-3.089 0.007-0.007 0.015-0.014 0.023-0.022-1.376 0.014-2.485 0.727-2.485 3.011-0 1.615 1.066 2.933 2.406 3.008zM11.438 5.030c0 1.047-0.346 2.035-0.973 2.784-0.026 0.031-0.052 0.061-0.079 0.091 0.021 0.026 0.061 0.034 0.101 0.034 1.339-0.075 2.406-1.393 2.406-3.008 0-2.284-1.109-2.997-2.485-3.011 0.007 0.007 0.015 0.014 0.023 0.022 0.669 0.679 1.007 1.719 1.007 3.089zM8 8.377c1.55 0 2.807-1.498 2.807-3.346 0-2.563-1.257-3.346-2.807-3.346s-2.807 0.783-2.807 3.346c0 1.848 1.257 3.346 2.807 3.346zM12.782 10.053c-0.065-0.149-0.179-0.272-0.32-0.347l-2.197-1.165c-0.048-0.026-0.107-0.021-0.151 0.013-0.621 0.479-1.352 0.732-2.113 0.732s-1.492-0.253-2.113-0.732c-0.044-0.034-0.102-0.039-0.151-0.013l-2.197 1.165c-0.142 0.075-0.255 0.198-0.32 0.347l-1.416 3.249c-0.098 0.224-0.078 0.48 0.054 0.686s0.353 0.328 0.594 0.328h11.101c0.241 0 0.462-0.123 0.594-0.328s0.151-0.462 0.054-0.686l-1.416-3.249z"></path>
</svg>
<svg id="icon-dashboard" width="16" height="16" viewBox="0 0 16 16" x="128" y="0">
<path fill="#607d8c" d="M8.62 8.62h4.779v4.779h-4.779v-4.779z"></path>
<path fill="#607d8c" d="M2.602 2.601h4.779v4.779h-4.779v-4.779z"></path>
<path fill="#607d8c" d="M8.62 2.601h4.779v4.779h-4.779v-4.779z"></path>
<path fill="#607d8c" d="M15.557 0h-15.115c-0.244 0-0.443 0.198-0.443 0.443v15.115c0 0.244 0.198 0.443 0.443 0.443h15.115c0.245 0 0.443-0.198 0.443-0.443v-15.115c0-0.245-0.198-0.443-0.443-0.443zM14.637 14.637h-13.275v-13.275h13.275v13.275z"></path>
<path fill="#607d8c" d="M2.602 8.62h4.779v4.779h-4.779v-4.779z"></path>
</svg>
<svg id="icon-deals" width="16" height="16" viewBox="0 0 16 16" x="160" y="0">
<path fill="#607d8c" d="M0.889 2.9c0.401-0.62 0.909-1.177 1.525-1.566 0.071 0.008 0.136 0.040 0.204 0.061 1.27 0.428 2.54 0.855 3.81 1.283 0.097 0.035 0.196 0.062 0.291 0.101-0.343 0.133-0.689 0.254-1.033 0.384-0.039 0.011-0.080 0.038-0.12 0.018-0.567-0.192-1.134-0.382-1.701-0.573-0.445-0.147-0.887-0.303-1.333-0.446-0.325 0.243-0.6 0.551-0.845 0.877-0.483 0.65-0.807 1.429-0.917 2.244-0.036 0.285-0.056 0.573-0.045 0.861 0.018 0.143 0.001 0.291 0.049 0.429 0.083 0.248 0.244 0.455 0.401 0.656-0.202 0.141-0.339 0.355-0.521 0.519-0.225-0.266-0.434-0.559-0.554-0.894-0.057-0.157-0.078-0.324-0.086-0.49-0.029-0.408-0.013-0.819 0.043-1.224 0.111-0.799 0.401-1.569 0.832-2.239zM7.564 3.099c0.277-0.088 0.567-0.139 0.857-0.123 0.095 0.003 0.181 0.052 0.269 0.084 0.914 0.353 1.827 0.706 2.74 1.059 0.040 0.019 0.083 0.010 0.124-0.001 0.637-0.185 1.275-0.366 1.912-0.551 0.055-0.015 0.108-0.035 0.164-0.043 0.027-0.010 0.042 0.020 0.057 0.037 0.201 0.265 0.369 0.556 0.528 0.85 0.312 0.583 0.588 1.186 0.855 1.793 0.302 0.693 0.588 1.395 0.861 2.101 0.025 0.067 0.059 0.133 0.068 0.205-0.352 0.418-0.822 0.719-1.329 0.888-0.517 0.174-1.068 0.22-1.608 0.179-0.083-0.018-0.182 0.009-0.25-0.054-1.489-1.394-2.98-2.786-4.468-4.181-0.408 0.118-0.815 0.238-1.226 0.341-0.219 0.055-0.439 0.113-0.665 0.133-0.418 0.033-0.852-0.023-1.226-0.228-0.287-0.154-0.526-0.398-0.687-0.689-0.053-0.098-0.113-0.199-0.123-0.314 0.002-0.138 0.074-0.268 0.173-0.356 0.108-0.106 0.263-0.114 0.396-0.164 0.871-0.285 1.723-0.629 2.576-0.965zM1.719 7.61c0.221-0.068 0.467-0.035 0.668 0.084 0.213 0.122 0.372 0.338 0.435 0.582 0.080-0.032 0.154-0.079 0.239-0.096 0.201-0.046 0.419-0.023 0.603 0.078 0.241 0.126 0.422 0.37 0.473 0.647 0.047 0.236-0.013 0.486-0.15 0.678 0.202-0.044 0.419-0.023 0.602 0.079 0.235 0.123 0.413 0.358 0.469 0.626 0.045 0.204 0.015 0.426-0.088 0.607-0.048 0.085-0.115 0.156-0.177 0.23 0.17-0.040 0.351-0.029 0.512 0.038 0.26 0.105 0.466 0.345 0.532 0.627 0.055 0.241 0.011 0.511-0.146 0.703-0.235 0.269-0.472 0.535-0.706 0.804-0.136 0.181-0.343 0.299-0.562 0.323-0.21 0.026-0.435-0.041-0.588-0.197-0.525-0.536-0.99-1.13-1.447-1.728-0.481-0.632-0.94-1.282-1.416-1.919-0.186-0.238-0.348-0.518-0.362-0.832 0.002-0.159 0.049-0.321 0.148-0.443 0.181-0.2 0.364-0.397 0.546-0.595 0.105-0.14 0.249-0.249 0.415-0.297zM8.262 7.991c0.106-0.092 0.28-0.089 0.379 0.015 1.089 1.134 2.177 2.27 3.273 3.398 0.243-0.025 0.475-0.162 0.617-0.37 0.111-0.158 0.176-0.355 0.165-0.552 0.004-0.13-0.042-0.252-0.088-0.369 0.258 0.043 0.52 0.070 0.782 0.071 0.12 0.582-0.1 1.219-0.542 1.595-0.181 0.161-0.398 0.273-0.627 0.338-0.061 0.253-0.167 0.497-0.329 0.698-0.287 0.372-0.733 0.603-1.191 0.617-0.178 0.403-0.509 0.731-0.91 0.883-0.431 0.166-0.937 0.128-1.33-0.126-0.029-0.015-0.068-0.056-0.095-0.016-0.327 0.357-0.819 0.543-1.29 0.482-0.329-0.035-0.645-0.193-0.877-0.438-0.217-0.226-0.435-0.453-0.652-0.679 0.159-0.187 0.322-0.372 0.487-0.553 0.237 0.234 0.462 0.482 0.696 0.719 0.134 0.128 0.314 0.206 0.496 0.208 0.298 0.012 0.595-0.162 0.743-0.431-0.152-0.177-0.322-0.337-0.48-0.508-0.363-0.378-0.727-0.756-1.090-1.134-0.116-0.111-0.111-0.326 0.009-0.432 0.106-0.112 0.296-0.106 0.401 0.005 0.667 0.694 1.333 1.387 1.999 2.081 0.095 0.121 0.252 0.151 0.393 0.171 0.254 0.012 0.51-0.102 0.681-0.298 0.094-0.101 0.155-0.229 0.201-0.36-0.135-0.159-0.287-0.301-0.428-0.453-0.811-0.845-1.624-1.689-2.434-2.535-0.12-0.119-0.112-0.342 0.018-0.45 0.115-0.102 0.303-0.087 0.404 0.030 0.98 1.018 1.958 2.038 2.937 3.057 0.021 0.021 0.051 0.024 0.079 0.025 0.214-0.003 0.427-0.092 0.584-0.244 0.156-0.148 0.257-0.356 0.281-0.574-1.060-1.109-2.126-2.213-3.188-3.321-0.052-0.059-0.117-0.107-0.151-0.18-0.057-0.122-0.028-0.286 0.078-0.37z"></path>
</svg>
<svg id="icon-knowledges" width="16" height="16" viewBox="0 0 16 16" x="192" y="0">
<path fill="#607d8c" d="M15.337 6.516v-1.024l-0.072-0.284c-0.021-0.034-0.343-0.63-0.988-1.242-0.49-0.465-1.188-0.942-2.073-1.143v-1.881c-3.885 0.298-4.291 3.533-4.291 3.533v0.030c-0.003 0.003-0.007 0.008-0.011 0.012-0.139-0.172-0.308-0.36-0.508-0.551-0.644-0.61-1.641-1.244-2.952-1.244-1.313 0-2.299 0.636-2.931 1.248-0.632 0.615-0.941 1.214-0.959 1.248l-0.068 0.274v1.024h-0.483v8.543h16v-8.543h-0.663zM2.865 13.326c0.428-0.268 0.948-0.464 1.578-0.465 0.627 0 1.155 0.196 1.593 0.465h-3.171zM7.368 12.935c-0.642-0.601-1.63-1.221-2.925-1.221h-0.002c-1.275 0-2.241 0.6-2.87 1.194v-7.253c0.111-0.18 0.354-0.537 0.72-0.88 0.505-0.47 1.208-0.902 2.152-0.902 0.971 0 1.71 0.464 2.229 0.952 0.258 0.243 0.458 0.49 0.587 0.672 0.045 0.062 0.081 0.12 0.109 0.164 0 0 0 7.274 0 7.274v0zM11.326 1.942v8.603c0 0-1.462-0.277-2.859 1.068v-6.654c0 0 0.525-2.521 2.859-3.017v0zM9.748 13.326c0.43-0.268 0.95-0.464 1.577-0.465 0.627 0 1.157 0.196 1.595 0.465h-3.172zM14.253 12.935c-0.645-0.603-1.631-1.221-2.928-1.221-1.274-0.001-2.241 0.6-2.872 1.194v-0.046c1.215-1.751 3.752-1.285 3.752-1.285v-7.569c0.551 0.174 1.003 0.486 1.353 0.816 0.259 0.243 0.453 0.49 0.583 0.672 0.046 0.062 0.083 0.12 0.112 0.164v7.275h0.001z"></path>
</svg>
<svg id="icon-loyalty" width="16" height="16" viewBox="0 0 16 16" x="224" y="0">
<path fill="#607d8c" d="M4.537 9.243c0.039 0.331 0.334 0.802 0.537 0.802 0.025 0 0.048-0.007 0.068-0.020 0.148 0.282 0.334 0.535 0.539 0.731h1.537c0.186-0.198 0.346-0.457 0.463-0.745 0.026 0.020 0.055 0.034 0.086 0.034 0.203 0 0.445-0.472 0.447-0.802 0.002-0.338-0.025-0.618-0.239-0.618-0.025 0-0.052 0.005-0.079 0.012-0.020-0.975-0.263-2.283-1.694-2.283-1.335 0-1.527 1.306-1.437 2.28-0.020-0.004-0.040-0.009-0.058-0.009-0.213 0.001-0.21 0.281-0.17 0.619zM12.603 8.141l0.093-0.624c0.034-0.223-0.101-0.407-0.301-0.407h-4.326c0.123 0.312 0.209 0.687 0.241 1.138 0.089 0.060 0.154 0.157 0.206 0.273h3.684c0.191-0.001 0.371-0.169 0.402-0.381zM11.886 10.794c0.176 0 0.341-0.145 0.368-0.325l0.079-0.531c0.028-0.19-0.098-0.346-0.281-0.346h-3.473c-0.1 0.369-0.333 0.745-0.645 0.844-0.009 0.017-0.020 0.032-0.029 0.050l0.001 0.309 3.979-0.001zM2.249 10.6l-0.709-4.937c0-0.607 0.473-1.102 1.056-1.102h10.767c0.582 0 1.055 0.494 1.055 1.102l-0.63 4.88h0.944l0.631-4.88c0-1.153-0.895-2.087-2-2.087h-10.767c-1.104 0-2 0.934-2 2.087l0.709 4.937h0.944zM1.144 11.247c-0.196 0-0.381 0.089-0.51 0.243s-0.185 0.36-0.157 0.561l0.551 3.948h13.943l0.551-3.949c0.028-0.201-0.030-0.407-0.157-0.561s-0.314-0.243-0.51-0.243h-13.712zM12.701 2.789l0.171-0.771c0.017-0.078-0-0.16-0.048-0.223s-0.12-0.099-0.197-0.099h-9.674c-0.079 0-0.153 0.038-0.202 0.102s-0.066 0.149-0.047 0.229l0.18 0.761 9.817 0.001zM11.732 1.092l0.139-0.782c0.013-0.077-0.007-0.156-0.054-0.216s-0.119-0.095-0.194-0.095h-7.674c-0.075 0-0.146 0.035-0.194 0.096s-0.067 0.141-0.052 0.218l0.148 0.779h7.882z"></path>
</svg>
<svg id="icon-mail" width="16" height="16" viewBox="0 0 16 16" x="256" y="0">
<path fill="#607d8c" d="M1.253 2.255l5.708 4.522c0.259 0.205 0.616 0.296 0.962 0.279 0.346 0.017 0.703-0.073 0.961-0.279l5.708-4.522c0.457-0.36 0.354-0.655-0.226-0.655h-12.885c-0.581 0-0.684 0.295-0.228 0.655zM15.006 3.448l-6.238 4.736c-0.233 0.175-0.539 0.261-0.843 0.257-0.305 0.004-0.61-0.082-0.844-0.257l-6.239-4.736c-0.463-0.351-0.842-0.163-0.842 0.418v7.77c0 0.581 0.476 1.056 1.056 1.056h13.735c0.581 0 1.056-0.476 1.056-1.056v-7.77c0-0.581-0.379-0.769-0.842-0.418z"></path>
</svg>
<svg id="icon-products" width="16" height="16" viewBox="0 0 16 16" x="288" y="0">
<path fill="#607d8c" d="M15.668 2.703l-1.749-2.352c-0.165-0.222-0.416-0.352-0.681-0.352h-9.040c-0.265 0-0.516 0.129-0.681 0.352l-1.749 2.352c-0.183 0.246-0.332 0.704-0.332 1.050v1.723c0.139-0.234 0.342-0.41 0.585-0.5 0.014-0.197 0.069-0.388 0.165-0.562 0.165-0.301 0.43-0.515 0.745-0.603 0.113-0.032 0.217-0.046 0.32-0.046 0.417 0 0.795 0.227 1.016 0.585 0.066-0.012 0.132-0.019 0.199-0.019 0.205 0 0.398 0.060 0.567 0.164l0.969-0.27c0.121-0.034 0.246-0.051 0.371-0.051 0.67 0 1.256 0.486 1.425 1.181l1.899 7.821c0.099 0.408 0.044 0.833-0.155 1.197s-0.519 0.622-0.899 0.728l-0.847 0.236h7.117c0.601 0 1.089-0.522 1.089-1.167l-0-10.449c0-0.314-0.149-0.772-0.332-1.018v0zM2.339 2.683l0.579-0.779h3.952l0.39-0.687h-3.831l0.428-0.575c0.083-0.112 0.207-0.176 0.34-0.176h9.040c0.133 0 0.257 0.064 0.34 0.176l0.428 0.575h-3.899l0.218 0.687h4.193l0.579 0.779h-12.757zM2.516 5.557l-0.244 0.068c-0.26 0.073-0.416 0.357-0.349 0.636l0.002 0.010c0.068 0.279 0.334 0.446 0.594 0.374l2.072-0.578c0.26-0.073 0.416-0.357 0.349-0.636l-0.002-0.010c-0.068-0.279-0.334-0.446-0.594-0.374l-0.244 0.068c-0.131 0.036-0.264-0.048-0.298-0.187l-0.002-0.009c-0.079-0.325-0.389-0.52-0.692-0.435l-0.013 0.004c-0.303 0.085-0.485 0.416-0.406 0.741l0.002 0.009c0.034 0.14-0.044 0.283-0.175 0.319v0zM3.183 4.826c0.131-0.037 0.266 0.048 0.3 0.189s-0.045 0.285-0.176 0.321c-0.131 0.037-0.266-0.048-0.3-0.189s0.045-0.285 0.176-0.321v0zM6.237 12.87c0.023 0.094-0.030 0.19-0.117 0.214l-3.014 0.84c-0.088 0.024-0.177-0.032-0.2-0.126l-0.041-0.17c-0.023-0.094 0.030-0.19 0.117-0.214l3.014-0.84c0.088-0.024 0.177 0.032 0.2 0.126l0.041 0.17zM6.605 9.5l0.041 0.17c0.023 0.094-0.030 0.19-0.117 0.214l-4.125 1.15c-0.088 0.024-0.177-0.032-0.2-0.126l-0.041-0.17c-0.023-0.094 0.030-0.19 0.117-0.214l4.125-1.15c0.088-0.024 0.177 0.032 0.2 0.126v0zM6.157 8.354l-4.125 1.15c-0.088 0.024-0.177-0.032-0.2-0.126l-0.041-0.17c-0.023-0.094 0.030-0.19 0.117-0.214l4.125-1.15c0.088-0.024 0.177 0.032 0.2 0.126l0.041 0.17c0.023 0.094-0.030 0.19-0.117 0.214v0zM6.065 11.465l-3.332 0.929c-0.088 0.024-0.177-0.032-0.2-0.126l-0.041-0.17c-0.023-0.094 0.030-0.19 0.117-0.214l3.332-0.929c0.088-0.024 0.177 0.032 0.2 0.126l0.041 0.17c0.023 0.094-0.030 0.19-0.117 0.214v0zM9.064 13.352l-1.899-7.821c-0.114-0.47-0.562-0.751-1-0.629l-0.967 0.27c0.023 0.051 0.042 0.104 0.056 0.161 0.116 0.476-0.146 0.954-0.581 1.075l-2.041 0.569c-0.417 0.116-0.865-0.114-1.005-0.55-0.026-0.082-0.041-0.165-0.045-0.246l-0.968 0.27c-0.438 0.122-0.701 0.602-0.587 1.071l1.899 7.821c0.114 0.47 0.562 0.751 1 0.629l5.553-1.548c0.438-0.122 0.701-0.602 0.587-1.071v0zM2.718 15.121l-1.651-6.801 5.553-1.548 1.651 6.801-5.553 1.548z"></path>
</svg>
<svg id="icon-settings" width="16" height="16" viewBox="0 0 16 16" x="320" y="0">
<path fill="#607d8c" d="M10.070 15.878c-0.021 0-0.061 0-0.081 0-0.43-0.081-0.818-0.368-1.023-0.758-0.021-0.021-0.021-0.042-0.042-0.061-0.021-0.042-0.184-0.349-0.656-0.368h-0.019c-0.163 0-0.307 0-0.47 0h-0.023c-0.491 0-0.656 0.349-0.656 0.368-0.021 0.021-0.021 0.042-0.042 0.061-0.205 0.388-0.593 0.674-1.023 0.758-0.061 0.021-0.123 0.021-0.184 0-0.388-0.102-0.798-0.246-1.167-0.43-0.061-0.021-0.102-0.061-0.144-0.102-0.265-0.349-0.388-0.818-0.286-1.249 0-0.021 0-0.042 0.021-0.081 0-0.042 0.081-0.388-0.265-0.695l-0.021-0.021c-0.123-0.102-0.246-0.205-0.368-0.307v0c-0.163-0.123-0.328-0.184-0.512-0.184-0.144 0-0.246 0.042-0.246 0.042-0.021 0.021-0.042 0.021-0.081 0.021-0.409 0.163-0.9 0.144-1.288-0.081-0.061-0.021-0.102-0.061-0.123-0.123-0.225-0.328-0.43-0.674-0.614-1.044-0.021-0.061-0.042-0.102-0.042-0.163 0-0.451 0.225-0.9 0.572-1.167 0.021-0.021 0.042-0.042 0.061-0.042 0.021-0.021 0.307-0.246 0.246-0.716 0 0 0 0 0-0.021-0.042-0.144-0.061-0.307-0.081-0.47 0-0.021 0-0.021 0-0.021-0.081-0.47-0.47-0.572-0.47-0.572-0.021 0-0.042-0.021-0.081-0.021-0.43-0.144-0.798-0.491-0.942-0.921-0.021-0.061-0.021-0.102-0.021-0.163 0.042-0.368 0.102-0.758 0.205-1.146 0.021-0.061 0.042-0.102 0.081-0.144 0.307-0.368 0.758-0.572 1.207-0.553 0.021 0 0.042 0 0.081 0 0.102 0 0.43-0.021 0.635-0.388 0 0 0-0.021 0.021-0.021 0.061-0.123 0.144-0.265 0.246-0.409 0 0 0-0.021 0.021-0.021 0.225-0.409 0.042-0.716 0.021-0.758-0.021-0.021-0.021-0.042-0.042-0.061-0.246-0.409-0.307-0.9-0.123-1.351 0.021-0.042 0.042-0.102 0.081-0.144 0.265-0.265 0.553-0.512 0.86-0.716 0.042-0.042 0.102-0.061 0.144-0.061 0.47-0.102 0.962 0.042 1.309 0.349 0.021 0.021 0.042 0.021 0.061 0.042 0 0 0.184 0.163 0.451 0.163 0.081 0 0.184-0.021 0.286-0.042v0c0.163-0.061 0.328-0.123 0.47-0.163 0.43-0.163 0.491-0.532 0.491-0.572 0-0.021 0-0.042 0.021-0.061 0.061-0.47 0.349-0.9 0.777-1.125 0.042-0.021 0.102-0.042 0.144-0.042 0.409-0.021 0.695-0.021 1.105 0 0.061 0 0.102 0.021 0.144 0.042 0.43 0.225 0.716 0.635 0.777 1.105 0 0.021 0.021 0.042 0.021 0.081 0 0.042 0.061 0.388 0.491 0.572v0c0.163 0.042 0.328 0.102 0.47 0.163v0c0.102 0.042 0.205 0.061 0.286 0.061 0.286 0 0.451-0.163 0.451-0.163 0.021-0.021 0.042-0.042 0.061-0.042 0.349-0.307 0.839-0.451 1.309-0.349 0.061 0.021 0.102 0.042 0.144 0.061 0.307 0.225 0.593 0.47 0.86 0.716 0.042 0.042 0.061 0.081 0.081 0.144 0.163 0.451 0.123 0.942-0.123 1.351 0 0.021-0.021 0.042-0.042 0.061s-0.205 0.349 0.021 0.758c0 0 0 0.021 0.021 0.021 0.081 0.144 0.163 0.265 0.246 0.409 0 0 0 0.021 0.021 0.021 0.205 0.349 0.532 0.388 0.635 0.388 0.021 0 0.061 0 0.081 0 0.451-0.021 0.921 0.184 1.207 0.553 0.042 0.042 0.061 0.102 0.081 0.144 0.102 0.368 0.163 0.758 0.205 1.146 0 0.061 0 0.102-0.021 0.163-0.163 0.451-0.512 0.777-0.942 0.921-0.021 0.021-0.042 0.021-0.081 0.021-0.042 0-0.388 0.123-0.47 0.593v0.021c-0.021 0.163-0.042 0.328-0.081 0.47v0.021c-0.061 0.409 0.246 0.635 0.246 0.635 0.021 0.021 0.042 0.042 0.061 0.061 0.349 0.286 0.572 0.716 0.572 1.167 0 0.061-0.021 0.123-0.042 0.163-0.163 0.349-0.368 0.716-0.614 1.044-0.042 0.042-0.081 0.081-0.123 0.123-0.225 0.123-0.47 0.184-0.737 0.184v0c-0.184 0-0.388-0.042-0.553-0.102-0.021 0-0.042-0.021-0.081-0.021v0c0 0-0.102-0.042-0.246-0.042-0.184 0-0.349 0.061-0.491 0.184 0 0 0 0-0.021 0-0.102 0.102-0.225 0.205-0.368 0.307 0 0-0.021 0-0.021 0.021-0.307 0.265-0.307 0.553-0.286 0.674 0.021 0.042 0.021 0.081 0.021 0.123v0c0.081 0.43-0.021 0.879-0.307 1.207-0.042 0.042-0.081 0.081-0.144 0.102-0.368 0.163-0.777 0.307-1.167 0.43 0.026 0.044-0.013 0.044-0.034 0.044zM5.078 14.792c0.286 0.123 0.572 0.225 0.86 0.307 0.205-0.061 0.368-0.205 0.451-0.388 0.021-0.021 0.021-0.042 0.042-0.081 0.163-0.286 0.572-0.695 1.269-0.716 0.021 0 0.021 0 0.021 0h0.021c0.163 0 0.307 0 0.47 0h0.042c0.674 0.021 1.105 0.43 1.269 0.716 0.021 0.021 0.042 0.042 0.042 0.081 0.081 0.184 0.246 0.328 0.451 0.388 0.286-0.081 0.593-0.184 0.86-0.307 0.102-0.184 0.144-0.388 0.081-0.593 0-0.021-0.021-0.061-0.021-0.081-0.061-0.328 0-0.9 0.512-1.372l0.042-0.042c0.144-0.102 0.246-0.205 0.368-0.307l0.021-0.021c0 0 0.021 0 0.021-0.021 0.286-0.225 0.614-0.349 0.962-0.349 0.205 0 0.368 0.042 0.47 0.081 0.021 0 0.061 0.021 0.081 0.021 0.102 0.042 0.205 0.061 0.307 0.061v0c0.102 0 0.205-0.021 0.286-0.061 0.163-0.246 0.328-0.512 0.451-0.777-0.021-0.205-0.144-0.409-0.307-0.532-0.021-0.021-0.042-0.042-0.061-0.061-0.265-0.225-0.593-0.695-0.491-1.372v-0.042c0.042-0.144 0.061-0.307 0.081-0.47 0-0.021 0-0.021 0-0.042v-0.021c0.144-0.674 0.614-1.002 0.921-1.125 0.021-0.021 0.042-0.021 0.081-0.042 0.205-0.061 0.388-0.205 0.491-0.409-0.042-0.286-0.081-0.572-0.144-0.839-0.163-0.163-0.368-0.246-0.593-0.225-0.042 0-0.061 0-0.102 0-0.225 0-0.839-0.081-1.249-0.737l-0.021-0.021c-0.081-0.163-0.163-0.286-0.246-0.43l-0.021-0.021c0 0 0-0.021-0.021-0.021-0.328-0.614-0.184-1.167-0.021-1.453 0.021-0.021 0.021-0.042 0.042-0.081 0.123-0.184 0.163-0.409 0.102-0.635-0.205-0.184-0.409-0.368-0.635-0.532-0.225-0.021-0.451 0.061-0.614 0.205-0.021 0.021-0.042 0.042-0.081 0.061-0.021 0.144-0.328 0.349-0.798 0.349-0.163 0-0.349-0.021-0.512-0.081h-0.042c-0.144-0.061-0.307-0.123-0.451-0.163h-0.021c0 0 0 0-0.021 0-0.635-0.246-0.9-0.777-0.962-1.105 0-0.021-0.021-0.061-0.021-0.081-0.021-0.225-0.144-0.43-0.328-0.553-0.307-0.021-0.512-0.021-0.818 0-0.184 0.123-0.307 0.328-0.328 0.553 0 0.021 0 0.061-0.021 0.081-0.061 0.328-0.307 0.86-0.962 1.105 0 0 0 0-0.021 0h-0.021c-0.144 0.042-0.307 0.102-0.451 0.163h-0.042c-0.163 0.061-0.328 0.081-0.512 0.081-0.47 0-0.777-0.205-0.921-0.328-0.021-0.021-0.042-0.042-0.081-0.061-0.163-0.163-0.388-0.246-0.614-0.205-0.225 0.163-0.43 0.349-0.635 0.532-0.061 0.225-0.021 0.451 0.102 0.635 0.021 0.021 0.021 0.042 0.042 0.081 0.163 0.286 0.307 0.86-0.021 1.453v0.021l-0.021 0.021c-0.081 0.144-0.163 0.265-0.246 0.409 0 0.021-0.021 0.021-0.021 0.042-0.409 0.656-1.023 0.737-1.249 0.737-0.021 0-0.061 0-0.081 0-0.225-0.021-0.43 0.061-0.593 0.225-0.061 0.286-0.123 0.572-0.144 0.839 0.102 0.205 0.265 0.349 0.491 0.409 0.021 0 0.061 0.021 0.081 0.042 0.307 0.123 0.777 0.451 0.921 1.125v0.021c0 0.021 0 0.021 0 0.042 0.021 0.163 0.042 0.307 0.081 0.47v0.042c0.102 0.674-0.225 1.146-0.491 1.372-0.021 0.021-0.042 0.042-0.061 0.061-0.184 0.123-0.286 0.328-0.307 0.532 0.144 0.265 0.286 0.532 0.451 0.777 0.184 0.081 0.409 0.081 0.614-0.021 0.021-0.021 0.061-0.021 0.081-0.021 0.102-0.042 0.265-0.081 0.47-0.081 0.349 0 0.674 0.123 0.962 0.349 0 0 0 0 0.021 0s0.021 0.021 0.042 0.021c0.102 0.102 0.225 0.205 0.368 0.307l0.042 0.042c0.512 0.451 0.572 1.044 0.512 1.372 0 0.021 0 0.061-0.021 0.081-0.080 0.225-0.038 0.43 0.064 0.614zM8.003 12.092c-2.209 0-3.99-1.8-3.99-3.99s1.781-4.011 3.99-4.011 3.99 1.8 3.99 3.99-1.781 4.011-3.99 4.011zM8.003 4.847c-1.781 0-3.253 1.453-3.253 3.253s1.472 3.234 3.253 3.234 3.253-1.453 3.253-3.253-1.472-3.234-3.253-3.234z"></path>
</svg>
<svg id="icon-sms" width="16" height="16" viewBox="0 0 16 16" x="352" y="0">
<path fill="#607d8c" d="M8.194 1.5c-4.143 0-7.502 2.64-7.502 5.894 0 1.541 0.753 2.946 1.987 3.996-0.047 1.024-0.259 2.4-1.010 3.109 1.433 0 2.9-0.943 3.77-1.623 0.853 0.266 1.782 0.412 2.754 0.412 4.143 0 7.502-2.64 7.502-5.894s-3.359-5.894-7.502-5.894v0z"></path>
</svg>
<svg id="icon-staff" width="16" height="16" viewBox="0 0 16 16" x="384" y="0">
<path fill="#607d8c" d="M5.104 5.019c0.052 0.256 0.132 0.421 0.224 0.524 0.221 1.646 1.601 3.049 2.71 2.99 1.41-0.074 2.41-1.701 2.634-2.99 0.093-0.102 0.182-0.322 0.236-0.579 0.060-0.296 0.125-0.741-0.042-0.977-0.010-0.012-0.073-0.075-0.084-0.085 0.159-0.612 0.507-1.705-0.361-2.687-0.47-0.532-1.123-0.8-1.713-1.011-1.742-0.623-2.972 0.251-3.539 1.703-0.041 0.103-0.306 0.756 0.015 1.995-0.031 0.022-0.059 0.051-0.083 0.085-0.167 0.235-0.058 0.737 0.002 1.032v0zM14.113 14.071c-0.048-1.133-0.108-2.928-1.033-4.397 0 0-0.264-0.385-0.889-0.64 0 0-1.358-0.443-1.983-0.921l-0.286 0.209 0.032 1.987-1.714 4.898c-0.037 0.107-0.133 0.178-0.24 0.178s-0.202-0.071-0.24-0.178l-1.714-4.898c0 0 0.032-1.981 0.031-1.987 0.004 0.017-0.286-0.209-0.286-0.209-0.624 0.478-1.982 0.921-1.982 0.921-0.625 0.256-0.889 0.64-0.889 0.64-0.924 1.469-0.985 3.264-1.034 4.397-0.033 0.783 0.12 1.075 0.313 1.158 2.391 1.027 9.208 1.027 11.6 0 0.194-0.083 0.346-0.375 0.313-1.158v0zM8.061 9.166l-0.077 0.002c-0.249 0-0.501-0.052-0.748-0.143l0.679 1.113-0.61 0.63 0.628 4.079c0.005 0.035 0.033 0.060 0.067 0.060s0.061-0.025 0.067-0.060l0.628-4.079-0.61-0.63 0.67-1.096c-0.219 0.069-0.45 0.114-0.693 0.125v0z"></path>
</svg>
<svg id="icon-tasks" width="16" height="16" viewBox="0 0 16 16" x="416" y="0">
<path fill="#607d8c" d="M4.356 6.311l-1.244 1.244 4 4 8.889-8.889-1.244-1.244-7.644 7.644-2.756-2.756zM14.222 14.222h-12.444v-12.444h8.889v-1.778h-8.889c-0.978 0-1.778 0.8-1.778 1.778v12.444c0 0.978 0.8 1.778 1.778 1.778h12.444c0.978 0 1.778-0.8 1.778-1.778v-7.111h-1.778v7.111z"></path>
</svg>
</svg>
