<?xml version="1.0" encoding="utf-8"?>
<!-- Generated by IcoMoon.io -->
<!DOCTYPE svg PUBLIC "-//W3C//DTD SVG 1.1//EN" "http://www.w3.org/Graphics/SVG/1.1/DTD/svg11.dtd">
<svg version="1.1" xmlns="http://www.w3.org/2000/svg" xmlns:xlink="http://www.w3.org/1999/xlink" width="144" height="16" viewBox="0 0 144 16">
<svg id="icon-bookmark" width="12" height="16" viewBox="0 0 12 16" x="0" y="0">
<path fill="#607d8c" d="M0 0v15.985l6.224-6.152 6.043 6.167v-16h-12.267zM6.23 9.038l-5.66 5.595v-14.080h11.125v14.065l-5.466-5.579z"></path>
</svg>
<svg id="icon-message" width="16" height="16" viewBox="0 0 16 16" x="32" y="0">
<path fill="#607d8c" d="M14.5 1h-13c-0.828 0-1.5 0.672-1.5 1.5v9c0 0.828 0.672 1.5 1.5 1.5h1.7l1.083 1.876c0.002 0.004 0.005 0.007 0.008 0.010 0.005 0.008 0.011 0.016 0.017 0.024 0.005 0.006 0.010 0.011 0.015 0.016 0.006 0.006 0.012 0.012 0.019 0.018s0.013 0.010 0.021 0.015c0.004 0.003 0.008 0.006 0.012 0.009 0.003 0.002 0.005 0.002 0.008 0.003 0.008 0.004 0.015 0.008 0.023 0.011s0.015 0.006 0.022 0.008c0.008 0.002 0.015 0.004 0.023 0.005s0.016 0.003 0.024 0.004c0.008 0.001 0.016 0.001 0.024 0.001s0.016 0 0.024-0.001c0.008-0.001 0.016-0.003 0.024-0.004s0.015-0.003 0.023-0.005c0.008-0.002 0.015-0.005 0.022-0.008s0.016-0.007 0.024-0.011c0.003-0.002 0.005-0.002 0.008-0.004 0.004-0.003 0.008-0.006 0.012-0.009 0.007-0.005 0.014-0.010 0.021-0.015s0.013-0.011 0.019-0.017c0.005-0.005 0.011-0.011 0.016-0.017 0.006-0.007 0.011-0.015 0.016-0.023 0.003-0.004 0.006-0.007 0.008-0.011l1.083-1.876h8.7c0.828 0 1.5-0.672 1.5-1.5v-9c0-0.828-0.672-1.5-1.5-1.5zM15.5 11.25c0 0.69-0.56 1.25-1.25 1.25h-8.739l-1.011 1.751-1.011-1.751h-1.739c-0.69 0-1.25-0.56-1.25-1.25v-8.5c0-0.69 0.56-1.25 1.25-1.25h12.5c0.69 0 1.25 0.56 1.25 1.25v8.5z"></path>
<path fill="#607d8c" d="M8 5.75c-0.69 0-1.25 0.56-1.25 1.25s0.56 1.25 1.25 1.25c0.69 0 1.25-0.56 1.25-1.25s-0.56-1.25-1.25-1.25zM8 7.75c-0.414 0-0.75-0.336-0.75-0.75s0.336-0.75 0.75-0.75c0.414 0 0.75 0.336 0.75 0.75s-0.336 0.75-0.75 0.75z"></path>
<path fill="#607d8c" d="M12.25 5.75c-0.69 0-1.25 0.56-1.25 1.25s0.56 1.25 1.25 1.25 1.25-0.56 1.25-1.25-0.56-1.25-1.25-1.25zM12.25 7.75c-0.414 0-0.75-0.336-0.75-0.75s0.336-0.75 0.75-0.75 0.75 0.336 0.75 0.75-0.336 0.75-0.75 0.75z"></path>
<path fill="#607d8c" d="M3.75 5.75c-0.69 0-1.25 0.56-1.25 1.25s0.56 1.25 1.25 1.25 1.25-0.56 1.25-1.25-0.56-1.25-1.25-1.25zM3.75 7.75c-0.414 0-0.75-0.336-0.75-0.75s0.336-0.75 0.75-0.75 0.75 0.336 0.75 0.75-0.336 0.75-0.75 0.75z"></path>
</svg>
<svg id="icon-notify" width="15" height="16" viewBox="0 0 15 16" x="64" y="0">
<path fill="#607d8c" d="M14.627 13.294c-0.816 0-1.789-2.27-1.935-5.637v-2.637c0-2.769-2.339-5.021-5.214-5.021s-5.214 2.252-5.214 5.021v1.739c0 3.74-1.032 6.535-1.955 6.535-0.169 0-0.307 0.132-0.307 0.295s0.137 0.295 0.307 0.295h14.32c0.17 0 0.307-0.132 0.307-0.295s-0.137-0.296-0.307-0.296v0 0zM1.382 13.294c0.977-1.175 1.494-3.917 1.494-6.535v-1.739c0-2.443 2.064-4.43 4.601-4.43s4.601 1.987 4.601 4.43l0 2.649c0.096 2.216 0.589 4.558 1.474 5.624l-12.17 0zM9.051 14.232c-0.17 0-0.307 0.132-0.307 0.295 0 0.478-0.585 0.882-1.278 0.882s-1.278-0.404-1.278-0.882c0-0.163-0.137-0.295-0.307-0.295s-0.307 0.132-0.307 0.295c0 0.812 0.849 1.473 1.892 1.473s1.892-0.661 1.892-1.473c0-0.163-0.137-0.295-0.307-0.295v0z"></path>
</svg>
<svg id="icon-task" width="16" height="16" viewBox="0 0 16 16" x="96" y="0">
<path fill="#607d8c" d="M14.221 4.539c-0.246 0-0.445 0.199-0.445 0.445v8.133c0 0.86-0.699 1.559-1.559 1.559h-9.767c-0.859 0-1.559-0.699-1.559-1.559v-9.767c0-0.86 0.699-1.559 1.559-1.559h9.767c0.246 0 0.445-0.199 0.445-0.445s-0.199-0.445-0.445-0.445h-9.767c-1.351 0-2.45 1.099-2.45 2.45v9.767c0 1.351 1.099 2.45 2.45 2.45h9.767c1.351 0 2.45-1.099 2.45-2.45v-8.133c-0-0.246-0.199-0.445-0.445-0.445z"></path>
<path fill="#607d8c" d="M15.87 0.563c-0.174-0.174-0.456-0.174-0.63 0l-8.95 8.95-2.237-2.237c-0.174-0.174-0.456-0.174-0.63 0s-0.174 0.456 0 0.63l2.552 2.552c0.087 0.087 0.201 0.13 0.315 0.13s0.228-0.043 0.315-0.13c0-0 0-0 0-0.001l9.264-9.264c0.174-0.174 0.174-0.456 0-0.63z"></path>
</svg>
</svg>
