<?xml version="1.0" encoding="utf-8"?>
<!-- Generated by IcoMoon.io -->
<!DOCTYPE svg PUBLIC "-//W3C//DTD SVG 1.1//EN" "http://www.w3.org/Graphics/SVG/1.1/DTD/svg11.dtd">
<svg version="1.1" xmlns="http://www.w3.org/2000/svg" xmlns:xlink="http://www.w3.org/1999/xlink" width="336" height="16" viewBox="0 0 336 16">
<svg id="icon-phone" width="15" height="16" viewBox="0 0 15 16" x="0" y="0">
<path fill="#444444" d="M13.261 11.136c-0.968-0.827-1.95-1.327-2.906-0.502l-0.571 0.499c-0.418 0.362-1.194 2.054-4.197-1.395-3.002-3.445-1.216-3.981-0.797-4.34l0.574-0.5c0.951-0.827 0.592-1.869-0.094-2.941l-0.414-0.649c-0.689-1.070-1.439-1.772-2.393-0.946l-0.515 0.45c-0.421 0.307-1.599 1.303-1.885 3.196-0.344 2.272 0.741 4.873 3.227 7.727 2.482 2.855 4.913 4.29 7.215 4.265 1.913-0.021 3.069-1.046 3.43-1.419l0.517-0.45c0.951-0.825 0.36-1.666-0.608-2.494l-0.582-0.5z"></path>
</svg>
<svg id="icon-phone-positive" width="16" height="16" viewBox="0 0 16 16" x="32" y="0">
<path fill="#444444" d="M13.261 11.136c-0.968-0.827-1.95-1.327-2.906-0.502l-0.571 0.499c-0.418 0.362-1.194 2.054-4.197-1.395-3.002-3.445-1.216-3.981-0.797-4.34l0.574-0.5c0.951-0.827 0.592-1.869-0.094-2.941l-0.414-0.649c-0.689-1.070-1.439-1.772-2.393-0.946l-0.515 0.45c-0.421 0.307-1.599 1.303-1.885 3.196-0.344 2.272 0.741 4.873 3.227 7.727 2.482 2.855 4.913 4.29 7.215 4.265 1.913-0.021 3.069-1.046 3.43-1.419l0.517-0.45c0.951-0.825 0.36-1.666-0.608-2.494l-0.582-0.5zM10.667 8c1.473 0 2.667-1.194 2.667-2.667s-1.194-2.667-2.667-2.667c-1.473 0-2.667 1.194-2.667 2.667s1.194 2.667 2.667 2.667z"></path>
</svg>
<svg id="icon-mail" width="20" height="16" viewBox="0 0 20 16" x="64" y="0">
<path fill="#444444" d="M1.532 2.039l7.093 5.619c0.322 0.254 0.765 0.368 1.195 0.346 0.43 0.021 0.873-0.091 1.195-0.346l7.093-5.619c0.568-0.447 0.44-0.814-0.281-0.814h-16.011c-0.722 0-0.85 0.367-0.283 0.814zM18.62 3.522l-7.751 5.885c-0.29 0.218-0.669 0.324-1.048 0.319-0.379 0.005-0.759-0.102-1.048-0.319l-7.753-5.885c-0.575-0.436-1.046-0.202-1.046 0.52v9.656c0 0.722 0.591 1.313 1.313 1.313h17.067c0.722 0 1.313-0.591 1.313-1.313v-9.656c0-0.722-0.471-0.956-1.046-0.52z"></path>
</svg>
<svg id="icon-sms" width="18" height="16" viewBox="0 0 18 16" x="96" y="0">
<path fill="#444444" d="M9.143 0c-5.049 0-9.143 3.217-9.143 7.184 0 1.878 0.918 3.591 2.422 4.871-0.057 1.247-0.316 2.924-1.23 3.789 1.746 0 3.534-1.149 4.595-1.977 1.040 0.324 2.172 0.502 3.357 0.502 5.049 0 9.143-3.217 9.143-7.184s-4.093-7.184-9.143-7.184v0z"></path>
</svg>
<svg id="icon-presentation" width="15" height="16" viewBox="0 0 15 16" x="128" y="0">
<path fill="#444444" d="M13.923 7.325l-12.516-7.222c-0.514-0.296-1.157 0.077-1.157 0.668v14.456c0 0.591 0.643 0.964 1.157 0.668l12.516-7.222c0.514-0.309 0.514-1.054 0-1.349v0z"></path>
</svg>
<svg id="icon-proposal" width="17" height="16" viewBox="0 0 17 16" x="160" y="0">
<path fill="#444444" d="M16.27 2.494h-4.419v-1.85c0-0.355-0.288-0.644-0.644-0.644h-4.955c-0.355 0-0.644 0.288-0.644 0.644v1.85h-4.419c-0.657 0-1.19 0.533-1.19 1.19v10.238c0 0.657 0.533 1.19 1.19 1.19h15.079c0.657 0 1.19-0.533 1.19-1.19v-10.238c0-0.657-0.533-1.19-1.19-1.19v0zM6.896 1.287h3.668v2.593h-3.668v-2.593z"></path>
</svg>
<svg id="icon-bill" width="13" height="16" viewBox="0 0 13 16" x="192" y="0">
<path fill="#444444" d="M12.461 5.004h-4.817c-0.117 0-0.213-0.096-0.213-0.213v-4.597c0 0 0.003-0.194-0.187-0.194h-6.891c-0.194 0-0.352 0.159-0.352 0.352v15.295c0 0.194 0.159 0.352 0.352 0.352h11.959c0.194 0 0.352-0.159 0.352-0.352v-10.432c0 0 0-0.211-0.203-0.211zM8.384 4.331h4.132c0.149 0 0.183-0.085 0.075-0.189l-4.282-4.083c-0.108-0.104-0.196-0.066-0.196 0.085v3.913c0 0.151 0.122 0.274 0.271 0.274z"></path>
</svg>
<svg id="icon-dollar" width="11" height="16" viewBox="0 0 11 16" x="224" y="0">
<path fill="#444444" d="M9.453 8.26c-0.477-0.369-1.192-0.672-2.146-0.911l-0.748-0.163v-3.154c0.022 0.022 0.043 0.033 0.065 0.033s0.033 0.011 0.033 0.033c0.629 0.304 0.965 0.824 1.008 1.561h2.504c-0.043-1.301-0.531-2.298-1.463-2.992-0.607-0.455-1.322-0.759-2.146-0.911v-1.756h-2.309v1.691c-1.084 0.13-1.94 0.477-2.569 1.041-0.824 0.737-1.236 1.669-1.236 2.797 0 1.214 0.423 2.114 1.268 2.699 0.455 0.325 1.301 0.629 2.537 0.911v3.382c-0.455-0.13-0.802-0.336-1.041-0.618-0.26-0.304-0.423-0.715-0.488-1.236h-2.472c0 1.279 0.466 2.287 1.398 3.024 0.672 0.52 1.539 0.856 2.602 1.008v1.301h2.309v-1.268c1.127-0.152 2.027-0.509 2.699-1.073 0.867-0.759 1.301-1.713 1.301-2.862 0-1.106-0.369-1.951-1.106-2.537v0zM4.25 6.634c-0.369-0.108-0.629-0.206-0.78-0.293-0.412-0.217-0.618-0.553-0.618-1.008 0-0.499 0.206-0.878 0.618-1.138 0.217-0.13 0.477-0.238 0.78-0.325v2.764zM6.949 12.455c-0.108 0.043-0.238 0.076-0.39 0.098v-2.894c0.412 0.13 0.726 0.26 0.943 0.39 0.369 0.238 0.553 0.564 0.553 0.976 0 0.694-0.369 1.171-1.106 1.431v0z"></path>
</svg>
<svg id="icon-meeting" width="11" height="16" viewBox="0 0 11 16" x="256" y="0">
<path fill="#444444" d="M5.292 0c-2.918 0-5.292 2.374-5.292 5.292 0 1.175 0.751 3.092 2.294 5.858 1.092 1.957 2.166 3.588 2.211 3.657l0.787 1.192 0.787-1.192c0.045-0.069 1.119-1.7 2.211-3.657 1.544-2.767 2.294-4.683 2.294-5.858 0-2.918-2.374-5.292-5.292-5.292v0zM5.292 8c-1.515 0-2.743-1.228-2.743-2.743s1.228-2.743 2.743-2.743c1.515 0 2.743 1.228 2.743 2.743s-1.228 2.743-2.743 2.743v0z"></path>
</svg>
<svg id="icon-stop" width="16" height="16" viewBox="0 0 16 16" x="288" y="0">
<path fill="#444444" d="M0 8c0 4.418 3.582 8 8 8s8-3.582 8-8-3.582-8-8-8c-4.418 0-8 3.582-8 8v0zM14.171 7.841c0 1.147-0.321 2.218-0.878 3.13l-8.265-8.265c0.912-0.557 1.983-0.878 3.13-0.878 3.321 0 6.013 2.692 6.013 6.013v0zM1.829 8.159c0-1.147 0.321-2.218 0.878-3.13l8.265 8.265c-0.912 0.557-1.983 0.878-3.13 0.878-3.321 0-6.013-2.692-6.013-6.013v0z"></path>
</svg>
</svg>
