<?xml version="1.0" encoding="utf-8"?>
<!-- Generated by IcoMoon.io -->
<!DOCTYPE svg PUBLIC "-//W3C//DTD SVG 1.1//EN" "http://www.w3.org/Graphics/SVG/1.1/DTD/svg11.dtd">
<svg version="1.1" xmlns="http://www.w3.org/2000/svg" xmlns:xlink="http://www.w3.org/1999/xlink" width="228" height="16" viewBox="0 0 228 16">
<svg id="icon-phone" width="16" height="16" viewBox="0 0 16 16" x="0" y="0">
<path fill="#0d47a1" d="M13.761 11.136c-0.968-0.827-1.95-1.327-2.906-0.502l-0.571 0.499c-0.418 0.362-1.194 2.054-4.197-1.395-3.002-3.445-1.216-3.981-0.797-4.34l0.574-0.5c0.951-0.827 0.592-1.869-0.094-2.941l-0.414-0.649c-0.689-1.070-1.439-1.772-2.393-0.946l-0.515 0.45c-0.421 0.307-1.599 1.303-1.885 3.196-0.344 2.272 0.741 4.873 3.227 7.727 2.482 2.855 4.913 4.29 7.215 4.265 1.913-0.021 3.069-1.046 3.43-1.419l0.517-0.45c0.951-0.825 0.36-1.666-0.608-2.494l-0.582-0.5z"></path>
</svg>
<svg id="icon-phone-positive" width="16" height="16" viewBox="0 0 16 16" x="32" y="0">
<path fill="#0d47a1" d="M13.761 11.136c-0.968-0.827-1.95-1.327-2.906-0.502l-0.571 0.499c-0.418 0.362-1.194 2.054-4.197-1.395-3.002-3.445-1.216-3.981-0.797-4.34l0.574-0.5c0.951-0.827 0.592-1.869-0.094-2.941l-0.414-0.649c-0.689-1.070-1.439-1.772-2.393-0.946l-0.515 0.45c-0.421 0.307-1.599 1.303-1.885 3.196-0.344 2.272 0.741 4.873 3.227 7.727 2.482 2.855 4.913 4.29 7.215 4.265 1.913-0.021 3.069-1.046 3.43-1.419l0.517-0.45c0.951-0.825 0.36-1.666-0.608-2.494l-0.582-0.5zM11.167 8c1.473 0 2.667-1.194 2.667-2.667s-1.194-2.667-2.667-2.667c-1.473 0-2.667 1.194-2.667 2.667s1.194 2.667 2.667 2.667z"></path>
</svg>
<svg id="icon-presentation" width="15" height="16" viewBox="0 0 15 16" x="64" y="0">
<path fill="#0d47a1" d="M13.923 7.325l-12.516-7.222c-0.514-0.296-1.157 0.077-1.157 0.668v14.456c0 0.591 0.643 0.964 1.157 0.668l12.516-7.222c0.514-0.309 0.514-1.054 0-1.349v0z"></path>
</svg>
<svg id="icon-proposal" width="17" height="16" viewBox="0 0 17 16" x="96" y="0">
<path fill="#0d47a1" d="M16.27 2.494h-4.419v-1.85c0-0.355-0.288-0.644-0.644-0.644h-4.955c-0.355 0-0.644 0.288-0.644 0.644v1.85h-4.419c-0.657 0-1.19 0.533-1.19 1.19v10.238c0 0.657 0.533 1.19 1.19 1.19h15.079c0.657 0 1.19-0.533 1.19-1.19v-10.238c0-0.657-0.533-1.19-1.19-1.19v0zM6.896 1.287h3.668v2.593h-3.668v-2.593z"></path>
</svg>
<svg id="icon-dollar" width="11" height="16" viewBox="0 0 11 16" x="128" y="0">
<path fill="#0d47a1" d="M9.453 8.26c-0.477-0.369-1.192-0.672-2.146-0.911l-0.748-0.163v-3.154c0.022 0.022 0.043 0.033 0.065 0.033s0.033 0.011 0.033 0.033c0.629 0.304 0.965 0.824 1.008 1.561h2.504c-0.043-1.301-0.531-2.298-1.463-2.992-0.607-0.455-1.322-0.759-2.146-0.911v-1.756h-2.309v1.691c-1.084 0.13-1.94 0.477-2.569 1.041-0.824 0.737-1.236 1.669-1.236 2.797 0 1.214 0.423 2.114 1.268 2.699 0.455 0.325 1.301 0.629 2.537 0.911v3.382c-0.455-0.13-0.802-0.336-1.041-0.618-0.26-0.304-0.423-0.715-0.488-1.236h-2.472c0 1.279 0.466 2.287 1.398 3.024 0.672 0.52 1.539 0.856 2.602 1.008v1.301h2.309v-1.268c1.127-0.152 2.027-0.509 2.699-1.073 0.867-0.759 1.301-1.713 1.301-2.862 0-1.106-0.369-1.951-1.106-2.537v0zM4.25 6.634c-0.369-0.108-0.629-0.206-0.78-0.293-0.412-0.217-0.618-0.553-0.618-1.008 0-0.499 0.206-0.878 0.618-1.138 0.217-0.13 0.477-0.238 0.78-0.325v2.764zM6.949 12.455c-0.108 0.043-0.238 0.076-0.39 0.098v-2.894c0.412 0.13 0.726 0.26 0.943 0.39 0.369 0.238 0.553 0.564 0.553 0.976 0 0.694-0.369 1.171-1.106 1.431v0z"></path>
</svg>
<svg id="icon-sum" width="14" height="16" viewBox="0 0 14 16" x="160" y="0">
<path fill="#0d47a1" d="M11.968 3.207v-1.378h-8.954l5.269 5.667c0.33 0.355 0.325 0.907-0.011 1.257l-5.21 5.418h8.905v-0.832c0-0.504 0.41-0.914 0.914-0.914s0.915 0.41 0.915 0.914v1.746c0 0.504-0.41 0.915-0.915 0.915h-11.968c-0.367 0-0.697-0.218-0.841-0.556s-0.072-0.727 0.182-0.992l6.099-6.343-6.11-6.571c-0.248-0.267-0.314-0.654-0.169-0.988s0.475-0.549 0.838-0.549h11.968c0.504 0 0.915 0.41 0.915 0.915v2.292c0 0.504-0.41 0.915-0.915 0.915s-0.914-0.41-0.914-0.915v0z"></path>
</svg>
<svg id="icon-full-menu" width="4" height="16" viewBox="0 0 4 16" x="192" y="0">
<path fill="#0d47a1" d="M2 4c1.105 0 2-0.895 2-2s-0.895-2-2-2c-1.105 0-2 0.895-2 2s0.895 2 2 2zM2 10c1.105 0 2-0.895 2-2s-0.895-2-2-2c-1.105 0-2 0.895-2 2s0.895 2 2 2zM2 16c1.105 0 2-0.895 2-2s-0.895-2-2-2c-1.105 0-2 0.895-2 2s0.895 2 2 2z"></path>
</svg>
</svg>
